STARTFONT 2.1
COMMENT 
COMMENT Converted from TrueType font "envy.ttf" by "ttf2bdf 2.8".
COMMENT 
FONT -FreeType-Envy Code R2-Medium-R-Normal--11-80-100-100-P-46-ISO10646-1
SIZE 8 100 100
FONTBOUNDINGBOX 9 15 -1 -4
STARTPROPERTIES 20
FOUNDRY "FreeType"
FAMILY_NAME "Envy Code R2"
WEIGHT_NAME "Medium"
SLANT "R"
SETWIDTH_NAME "Normal"
ADD_STYLE_NAME ""
PIXEL_SIZE 11
POINT_SIZE 80
RESOLUTION_X 100
RESOLUTION_Y 100
SPACING "P"
AVERAGE_WIDTH 46
CHARSET_REGISTRY "ISO10646"
CHARSET_ENCODING "1"
FONT_ASCENT 10
FONT_DESCENT 2
COPYRIGHT "Copyright (c) 2006-2008 by Envy Technologies Limited. All rights reserved."
_TTF_FONTFILE "envy.ttf"
_TTF_PSNAME "EnvyCodeR2"
_GBDFED_INFO "Edited with gbdfed 1.6."
ENDPROPERTIES
CHARS 655
STARTCHAR 0020
ENCODING 32
SWIDTH 450 0
DWIDTH 5 0
BBX 0 0 0 0
BITMAP
ENDCHAR
STARTCHAR 0021
ENCODING 33
SWIDTH 540 0
DWIDTH 6 0
BBX 1 8 2 0
BITMAP
80
80
80
80
80
00
80
80
ENDCHAR
STARTCHAR 0022
ENCODING 34
SWIDTH 540 0
DWIDTH 6 0
BBX 3 3 1 5
BITMAP
A0
A0
A0
ENDCHAR
STARTCHAR 0023
ENCODING 35
SWIDTH 540 0
DWIDTH 6 0
BBX 4 6 1 1
BITMAP
20
A0
F0
A0
F0
20
ENDCHAR
STARTCHAR 0024
ENCODING 36
SWIDTH 540 0
DWIDTH 6 0
BBX 4 8 1 0
BITMAP
40
F0
C0
E0
50
50
E0
40
ENDCHAR
STARTCHAR 0025
ENCODING 37
SWIDTH 540 0
DWIDTH 6 0
BBX 5 6 0 1
BITMAP
E8
B0
E0
38
68
B8
ENDCHAR
STARTCHAR 0026
ENCODING 38
SWIDTH 540 0
DWIDTH 6 0
BBX 5 8 0 0
BITMAP
70
50
60
60
A8
98
90
68
ENDCHAR
STARTCHAR 0027
ENCODING 39
SWIDTH 540 0
DWIDTH 6 0
BBX 1 3 2 5
BITMAP
80
80
80
ENDCHAR
STARTCHAR 0028
ENCODING 40
SWIDTH 540 0
DWIDTH 6 0
BBX 3 10 2 -2
BITMAP
20
40
40
80
80
80
80
40
40
20
ENDCHAR
STARTCHAR 0029
ENCODING 41
SWIDTH 540 0
DWIDTH 6 0
BBX 3 10 1 -2
BITMAP
80
40
40
20
20
20
20
40
40
80
ENDCHAR
STARTCHAR 002A
ENCODING 42
SWIDTH 540 0
DWIDTH 6 0
BBX 5 5 0 3
BITMAP
20
20
F8
50
40
ENDCHAR
STARTCHAR 002B
ENCODING 43
SWIDTH 540 0
DWIDTH 6 0
BBX 5 5 0 2
BITMAP
20
20
F8
20
20
ENDCHAR
STARTCHAR 002C
ENCODING 44
SWIDTH 540 0
DWIDTH 6 0
BBX 2 4 2 -2
BITMAP
C0
C0
40
C0
ENDCHAR
STARTCHAR 002D
ENCODING 45
SWIDTH 540 0
DWIDTH 6 0
BBX 4 1 1 4
BITMAP
F0
ENDCHAR
STARTCHAR 002E
ENCODING 46
SWIDTH 540 0
DWIDTH 6 0
BBX 2 2 2 0
BITMAP
C0
C0
ENDCHAR
STARTCHAR 002F
ENCODING 47
SWIDTH 540 0
DWIDTH 6 0
BBX 4 9 1 -1
BITMAP
10
20
20
20
40
40
40
80
80
ENDCHAR
STARTCHAR 0030
ENCODING 48
SWIDTH 540 0
DWIDTH 6 0
BBX 4 8 1 0
BITMAP
60
90
90
B0
D0
90
90
60
ENDCHAR
STARTCHAR 0031
ENCODING 49
SWIDTH 540 0
DWIDTH 6 0
BBX 3 8 1 0
BITMAP
40
C0
40
40
40
40
40
E0
ENDCHAR
STARTCHAR 0032
ENCODING 50
SWIDTH 540 0
DWIDTH 6 0
BBX 4 8 1 0
BITMAP
60
90
10
10
60
80
80
F0
ENDCHAR
STARTCHAR 0033
ENCODING 51
SWIDTH 540 0
DWIDTH 6 0
BBX 4 8 1 0
BITMAP
E0
10
10
60
10
10
10
E0
ENDCHAR
STARTCHAR 0034
ENCODING 52
SWIDTH 540 0
DWIDTH 6 0
BBX 4 8 1 0
BITMAP
20
20
60
60
A0
F0
20
20
ENDCHAR
STARTCHAR 0035
ENCODING 53
SWIDTH 540 0
DWIDTH 6 0
BBX 4 8 1 0
BITMAP
F0
80
80
E0
10
10
10
E0
ENDCHAR
STARTCHAR 0036
ENCODING 54
SWIDTH 540 0
DWIDTH 6 0
BBX 4 8 1 0
BITMAP
20
40
80
E0
90
90
90
60
ENDCHAR
STARTCHAR 0037
ENCODING 55
SWIDTH 540 0
DWIDTH 6 0
BBX 4 8 1 0
BITMAP
F0
10
10
20
20
20
40
40
ENDCHAR
STARTCHAR 0038
ENCODING 56
SWIDTH 540 0
DWIDTH 6 0
BBX 4 8 1 0
BITMAP
60
90
90
60
90
90
90
60
ENDCHAR
STARTCHAR 0039
ENCODING 57
SWIDTH 540 0
DWIDTH 6 0
BBX 4 8 1 0
BITMAP
60
90
90
70
10
20
20
40
ENDCHAR
STARTCHAR 003A
ENCODING 58
SWIDTH 540 0
DWIDTH 6 0
BBX 2 6 2 0
BITMAP
C0
C0
00
00
C0
C0
ENDCHAR
STARTCHAR 003B
ENCODING 59
SWIDTH 540 0
DWIDTH 6 0
BBX 2 8 2 -2
BITMAP
C0
C0
00
00
C0
C0
40
C0
ENDCHAR
STARTCHAR 003C
ENCODING 60
SWIDTH 540 0
DWIDTH 6 0
BBX 3 6 1 1
BITMAP
20
40
C0
80
40
20
ENDCHAR
STARTCHAR 003D
ENCODING 61
SWIDTH 540 0
DWIDTH 6 0
BBX 5 3 0 3
BITMAP
F8
00
F8
ENDCHAR
STARTCHAR 003E
ENCODING 62
SWIDTH 540 0
DWIDTH 6 0
BBX 3 6 1 1
BITMAP
80
40
60
20
40
80
ENDCHAR
STARTCHAR 003F
ENCODING 63
SWIDTH 540 0
DWIDTH 6 0
BBX 4 8 1 0
BITMAP
60
90
90
20
40
00
40
40
ENDCHAR
STARTCHAR 0040
ENCODING 64
SWIDTH 540 0
DWIDTH 6 0
BBX 5 10 0 -2
BITMAP
70
D8
88
B8
A8
A8
B8
80
C0
70
ENDCHAR
STARTCHAR 0041
ENCODING 65
SWIDTH 540 0
DWIDTH 6 0
BBX 4 8 1 0
BITMAP
60
90
90
F0
90
90
90
90
ENDCHAR
STARTCHAR 0042
ENCODING 66
SWIDTH 540 0
DWIDTH 6 0
BBX 4 8 1 0
BITMAP
E0
90
90
E0
90
90
90
E0
ENDCHAR
STARTCHAR 0043
ENCODING 67
SWIDTH 540 0
DWIDTH 6 0
BBX 4 8 1 0
BITMAP
60
90
80
80
80
80
90
60
ENDCHAR
STARTCHAR 0044
ENCODING 68
SWIDTH 540 0
DWIDTH 6 0
BBX 4 8 1 0
BITMAP
E0
90
90
90
90
90
90
E0
ENDCHAR
STARTCHAR 0045
ENCODING 69
SWIDTH 540 0
DWIDTH 6 0
BBX 4 8 1 0
BITMAP
F0
80
80
E0
80
80
80
F0
ENDCHAR
STARTCHAR 0046
ENCODING 70
SWIDTH 540 0
DWIDTH 6 0
BBX 4 8 1 0
BITMAP
F0
80
80
E0
80
80
80
80
ENDCHAR
STARTCHAR 0047
ENCODING 71
SWIDTH 540 0
DWIDTH 6 0
BBX 4 8 1 0
BITMAP
60
90
80
B0
90
90
90
70
ENDCHAR
STARTCHAR 0048
ENCODING 72
SWIDTH 540 0
DWIDTH 6 0
BBX 4 8 1 0
BITMAP
90
90
90
F0
90
90
90
90
ENDCHAR
STARTCHAR 0049
ENCODING 73
SWIDTH 540 0
DWIDTH 6 0
BBX 5 8 0 0
BITMAP
F8
20
20
20
20
20
20
F8
ENDCHAR
STARTCHAR 004A
ENCODING 74
SWIDTH 540 0
DWIDTH 6 0
BBX 4 8 1 0
BITMAP
10
10
10
10
10
90
90
60
ENDCHAR
STARTCHAR 004B
ENCODING 75
SWIDTH 540 0
DWIDTH 6 0
BBX 4 8 1 0
BITMAP
90
A0
C0
C0
C0
C0
A0
90
ENDCHAR
STARTCHAR 004C
ENCODING 76
SWIDTH 540 0
DWIDTH 6 0
BBX 4 8 1 0
BITMAP
80
80
80
80
80
80
80
F0
ENDCHAR
STARTCHAR 004D
ENCODING 77
SWIDTH 540 0
DWIDTH 6 0
BBX 5 8 1 0
BITMAP
88
88
D8
A8
88
88
88
88
ENDCHAR
STARTCHAR 004E
ENCODING 78
SWIDTH 540 0
DWIDTH 6 0
BBX 4 8 1 0
BITMAP
90
D0
D0
D0
B0
B0
B0
90
ENDCHAR
STARTCHAR 004F
ENCODING 79
SWIDTH 540 0
DWIDTH 6 0
BBX 4 8 1 0
BITMAP
60
90
90
90
90
90
90
60
ENDCHAR
STARTCHAR 0050
ENCODING 80
SWIDTH 540 0
DWIDTH 6 0
BBX 4 8 1 0
BITMAP
E0
90
90
E0
80
80
80
80
ENDCHAR
STARTCHAR 0051
ENCODING 81
SWIDTH 540 0
DWIDTH 6 0
BBX 4 9 1 -1
BITMAP
60
90
90
90
90
D0
B0
60
10
ENDCHAR
STARTCHAR 0052
ENCODING 82
SWIDTH 540 0
DWIDTH 6 0
BBX 4 8 1 0
BITMAP
E0
90
90
E0
C0
A0
A0
90
ENDCHAR
STARTCHAR 0053
ENCODING 83
SWIDTH 540 0
DWIDTH 6 0
BBX 4 8 1 0
BITMAP
70
80
80
60
10
10
10
E0
ENDCHAR
STARTCHAR 0054
ENCODING 84
SWIDTH 540 0
DWIDTH 6 0
BBX 5 8 0 0
BITMAP
F8
20
20
20
20
20
20
20
ENDCHAR
STARTCHAR 0055
ENCODING 85
SWIDTH 540 0
DWIDTH 6 0
BBX 4 8 1 0
BITMAP
90
90
90
90
90
90
90
60
ENDCHAR
STARTCHAR 0056
ENCODING 86
SWIDTH 540 0
DWIDTH 6 0
BBX 4 8 1 0
BITMAP
90
90
90
90
90
90
60
60
ENDCHAR
STARTCHAR 0057
ENCODING 87
SWIDTH 540 0
DWIDTH 6 0
BBX 4 8 1 0
BITMAP
90
90
90
90
90
F0
F0
90
ENDCHAR
STARTCHAR 0058
ENCODING 88
SWIDTH 540 0
DWIDTH 6 0
BBX 4 8 1 0
BITMAP
90
60
60
60
60
60
60
90
ENDCHAR
STARTCHAR 0059
ENCODING 89
SWIDTH 540 0
DWIDTH 6 0
BBX 5 8 0 0
BITMAP
88
50
50
50
20
20
20
20
ENDCHAR
STARTCHAR 005A
ENCODING 90
SWIDTH 540 0
DWIDTH 6 0
BBX 4 8 1 0
BITMAP
F0
10
20
20
40
40
80
F0
ENDCHAR
STARTCHAR 005B
ENCODING 91
SWIDTH 540 0
DWIDTH 6 0
BBX 3 10 2 -2
BITMAP
E0
80
80
80
80
80
80
80
80
E0
ENDCHAR
STARTCHAR 005C
ENCODING 92
SWIDTH 540 0
DWIDTH 6 0
BBX 4 9 1 -1
BITMAP
80
80
40
40
40
20
20
20
10
ENDCHAR
STARTCHAR 005D
ENCODING 93
SWIDTH 540 0
DWIDTH 6 0
BBX 3 10 1 -2
BITMAP
E0
20
20
20
20
20
20
20
20
E0
ENDCHAR
STARTCHAR 005E
ENCODING 94
SWIDTH 540 0
DWIDTH 6 0
BBX 3 4 1 4
BITMAP
40
E0
A0
A0
ENDCHAR
STARTCHAR 005F
ENCODING 95
SWIDTH 540 0
DWIDTH 6 0
BBX 6 1 0 -3
BITMAP
FC
ENDCHAR
STARTCHAR 0060
ENCODING 96
SWIDTH 540 0
DWIDTH 6 0
BBX 2 1 1 7
BITMAP
C0
ENDCHAR
STARTCHAR 0061
ENCODING 97
SWIDTH 540 0
DWIDTH 6 0
BBX 4 6 1 0
BITMAP
60
10
70
90
90
70
ENDCHAR
STARTCHAR 0062
ENCODING 98
SWIDTH 540 0
DWIDTH 6 0
BBX 4 8 1 0
BITMAP
80
80
E0
90
90
90
90
E0
ENDCHAR
STARTCHAR 0063
ENCODING 99
SWIDTH 540 0
DWIDTH 6 0
BBX 4 6 1 0
BITMAP
60
90
80
80
90
60
ENDCHAR
STARTCHAR 0064
ENCODING 100
SWIDTH 540 0
DWIDTH 6 0
BBX 4 8 1 0
BITMAP
10
10
70
90
90
90
90
70
ENDCHAR
STARTCHAR 0065
ENCODING 101
SWIDTH 540 0
DWIDTH 6 0
BBX 4 6 1 0
BITMAP
60
90
F0
80
80
70
ENDCHAR
STARTCHAR 0066
ENCODING 102
SWIDTH 540 0
DWIDTH 6 0
BBX 4 8 1 0
BITMAP
30
40
40
E0
40
40
40
40
ENDCHAR
STARTCHAR 0067
ENCODING 103
SWIDTH 540 0
DWIDTH 6 0
BBX 4 9 1 -3
BITMAP
70
90
90
90
90
70
10
10
60
ENDCHAR
STARTCHAR 0068
ENCODING 104
SWIDTH 540 0
DWIDTH 6 0
BBX 4 8 1 0
BITMAP
80
80
E0
90
90
90
90
90
ENDCHAR
STARTCHAR 0069
ENCODING 105
SWIDTH 540 0
DWIDTH 6 0
BBX 2 8 1 0
BITMAP
40
00
C0
40
40
40
40
40
ENDCHAR
STARTCHAR 006A
ENCODING 106
SWIDTH 540 0
DWIDTH 6 0
BBX 3 10 1 -2
BITMAP
20
00
60
20
20
20
20
20
20
C0
ENDCHAR
STARTCHAR 006B
ENCODING 107
SWIDTH 540 0
DWIDTH 6 0
BBX 4 8 1 0
BITMAP
80
80
90
A0
C0
C0
A0
90
ENDCHAR
STARTCHAR 006C
ENCODING 108
SWIDTH 540 0
DWIDTH 6 0
BBX 2 8 1 0
BITMAP
C0
40
40
40
40
40
40
40
ENDCHAR
STARTCHAR 006D
ENCODING 109
SWIDTH 540 0
DWIDTH 6 0
BBX 5 6 1 0
BITMAP
D8
A8
A8
A8
A8
A8
ENDCHAR
STARTCHAR 006E
ENCODING 110
SWIDTH 540 0
DWIDTH 6 0
BBX 4 6 1 0
BITMAP
E0
90
90
90
90
90
ENDCHAR
STARTCHAR 006F
ENCODING 111
SWIDTH 540 0
DWIDTH 6 0
BBX 4 6 1 0
BITMAP
60
90
90
90
90
60
ENDCHAR
STARTCHAR 0070
ENCODING 112
SWIDTH 540 0
DWIDTH 6 0
BBX 4 9 1 -3
BITMAP
E0
90
90
90
90
E0
80
80
80
ENDCHAR
STARTCHAR 0071
ENCODING 113
SWIDTH 540 0
DWIDTH 6 0
BBX 4 9 1 -3
BITMAP
70
90
90
90
90
70
10
10
10
ENDCHAR
STARTCHAR 0072
ENCODING 114
SWIDTH 540 0
DWIDTH 6 0
BBX 4 6 1 0
BITMAP
E0
90
80
80
80
80
ENDCHAR
STARTCHAR 0073
ENCODING 115
SWIDTH 540 0
DWIDTH 6 0
BBX 4 6 1 0
BITMAP
70
80
E0
10
10
E0
ENDCHAR
STARTCHAR 0074
ENCODING 116
SWIDTH 540 0
DWIDTH 6 0
BBX 4 8 1 0
BITMAP
40
40
E0
40
40
40
40
30
ENDCHAR
STARTCHAR 0075
ENCODING 117
SWIDTH 540 0
DWIDTH 6 0
BBX 4 6 1 0
BITMAP
90
90
90
90
90
70
ENDCHAR
STARTCHAR 0076
ENCODING 118
SWIDTH 540 0
DWIDTH 6 0
BBX 4 6 1 0
BITMAP
90
90
E0
60
60
60
ENDCHAR
STARTCHAR 0077
ENCODING 119
SWIDTH 540 0
DWIDTH 6 0
BBX 5 6 0 0
BITMAP
88
88
A8
A8
A8
50
ENDCHAR
STARTCHAR 0078
ENCODING 120
SWIDTH 540 0
DWIDTH 6 0
BBX 3 6 1 0
BITMAP
A0
A0
40
40
A0
A0
ENDCHAR
STARTCHAR 0079
ENCODING 121
SWIDTH 540 0
DWIDTH 6 0
BBX 4 9 1 -3
BITMAP
90
90
90
90
90
70
10
10
60
ENDCHAR
STARTCHAR 007A
ENCODING 122
SWIDTH 540 0
DWIDTH 6 0
BBX 4 6 1 0
BITMAP
F0
10
20
40
80
F0
ENDCHAR
STARTCHAR 007B
ENCODING 123
SWIDTH 540 0
DWIDTH 6 0
BBX 4 10 1 -2
BITMAP
70
40
40
E0
40
20
60
40
40
30
ENDCHAR
STARTCHAR 007C
ENCODING 124
SWIDTH 540 0
DWIDTH 6 0
BBX 1 10 3 -2
BITMAP
80
80
80
80
80
80
80
80
80
80
ENDCHAR
STARTCHAR 007D
ENCODING 125
SWIDTH 540 0
DWIDTH 6 0
BBX 4 10 1 -2
BITMAP
E0
20
20
70
40
40
60
20
20
C0
ENDCHAR
STARTCHAR 007E
ENCODING 126
SWIDTH 540 0
DWIDTH 6 0
BBX 5 3 1 2
BITMAP
C0
A8
18
ENDCHAR
STARTCHAR char146
ENCODING 146
SWIDTH 990 0
DWIDTH 11 0
BBX 1 4 3 5
BITMAP
80
80
80
80
ENDCHAR
STARTCHAR char149
ENCODING 149
SWIDTH 540 0
DWIDTH 6 0
BBX 5 5 1 2
BITMAP
20
70
F8
70
20
ENDCHAR
STARTCHAR 00A0
ENCODING 160
SWIDTH 450 0
DWIDTH 5 0
BBX 0 0 0 0
BITMAP
ENDCHAR
STARTCHAR 00A1
ENCODING 161
SWIDTH 540 0
DWIDTH 6 0
BBX 1 8 2 0
BITMAP
80
80
00
80
80
80
80
80
ENDCHAR
STARTCHAR 00A2
ENCODING 162
SWIDTH 540 0
DWIDTH 6 0
BBX 4 8 1 -1
BITMAP
20
60
B0
A0
E0
D0
60
40
ENDCHAR
STARTCHAR 00A3
ENCODING 163
SWIDTH 540 0
DWIDTH 6 0
BBX 4 8 1 0
BITMAP
60
50
40
E0
40
40
40
F0
ENDCHAR
STARTCHAR 00A4
ENCODING 164
SWIDTH 540 0
DWIDTH 6 0
BBX 4 4 1 2
BITMAP
F0
90
90
F0
ENDCHAR
STARTCHAR 00A5
ENCODING 165
SWIDTH 540 0
DWIDTH 6 0
BBX 4 7 1 1
BITMAP
90
A0
60
60
F0
40
F0
ENDCHAR
STARTCHAR 00A6
ENCODING 166
SWIDTH 540 0
DWIDTH 6 0
BBX 1 10 2 -2
BITMAP
80
80
80
80
00
00
80
80
80
80
ENDCHAR
STARTCHAR 00A7
ENCODING 167
SWIDTH 540 0
DWIDTH 6 0
BBX 4 9 1 -1
BITMAP
70
80
80
F0
90
F0
10
10
E0
ENDCHAR
STARTCHAR 00A8
ENCODING 168
SWIDTH 540 0
DWIDTH 6 0
BBX 3 1 2 7
BITMAP
A0
ENDCHAR
STARTCHAR 00A9
ENCODING 169
SWIDTH 540 0
DWIDTH 6 0
BBX 6 8 0 0
BITMAP
30
48
B4
B4
A4
B4
48
30
ENDCHAR
STARTCHAR 00AA
ENCODING 170
SWIDTH 540 0
DWIDTH 6 0
BBX 3 4 1 4
BITMAP
60
20
E0
E0
ENDCHAR
STARTCHAR 00AB
ENCODING 171
SWIDTH 540 0
DWIDTH 6 0
BBX 4 4 1 1
BITMAP
50
A0
A0
50
ENDCHAR
STARTCHAR 00AC
ENCODING 172
SWIDTH 540 0
DWIDTH 6 0
BBX 4 2 1 3
BITMAP
F0
10
ENDCHAR
STARTCHAR 00AD
ENCODING 173
SWIDTH 540 0
DWIDTH 6 0
BBX 4 1 1 4
BITMAP
F0
ENDCHAR
STARTCHAR 00AE
ENCODING 174
SWIDTH 540 0
DWIDTH 6 0
BBX 6 8 0 0
BITMAP
30
48
B4
B4
B4
B4
48
30
ENDCHAR
STARTCHAR 00AF
ENCODING 175
SWIDTH 540 0
DWIDTH 6 0
BBX 4 1 1 7
BITMAP
F0
ENDCHAR
STARTCHAR 00B0
ENCODING 176
SWIDTH 540 0
DWIDTH 6 0
BBX 3 4 1 4
BITMAP
40
A0
A0
40
ENDCHAR
STARTCHAR 00B1
ENCODING 177
SWIDTH 540 0
DWIDTH 6 0
BBX 5 6 0 1
BITMAP
20
20
F8
20
20
F8
ENDCHAR
STARTCHAR 00B2
ENCODING 178
SWIDTH 540 0
DWIDTH 6 0
BBX 2 4 1 4
BITMAP
C0
40
80
C0
ENDCHAR
STARTCHAR 00B3
ENCODING 179
SWIDTH 540 0
DWIDTH 6 0
BBX 2 4 1 4
BITMAP
C0
C0
40
C0
ENDCHAR
STARTCHAR 00B4
ENCODING 180
SWIDTH 540 0
DWIDTH 6 0
BBX 2 1 2 7
BITMAP
C0
ENDCHAR
STARTCHAR 00B5
ENCODING 181
SWIDTH 540 0
DWIDTH 6 0
BBX 4 8 1 -2
BITMAP
90
90
90
90
90
E0
80
80
ENDCHAR
STARTCHAR 00B6
ENCODING 182
SWIDTH 540 0
DWIDTH 6 0
BBX 5 10 1 -2
BITMAP
78
E8
E8
68
28
28
28
28
28
28
ENDCHAR
STARTCHAR 00B7
ENCODING 183
SWIDTH 540 0
DWIDTH 6 0
BBX 2 2 2 4
BITMAP
C0
C0
ENDCHAR
STARTCHAR 00B8
ENCODING 184
SWIDTH 540 0
DWIDTH 6 0
BBX 3 2 0 -2
BITMAP
20
E0
ENDCHAR
STARTCHAR 00B9
ENCODING 185
SWIDTH 540 0
DWIDTH 6 0
BBX 3 4 1 4
BITMAP
C0
40
40
E0
ENDCHAR
STARTCHAR 00BA
ENCODING 186
SWIDTH 540 0
DWIDTH 6 0
BBX 4 6 1 2
BITMAP
60
90
90
60
00
F0
ENDCHAR
STARTCHAR 00BB
ENCODING 187
SWIDTH 540 0
DWIDTH 6 0
BBX 4 4 1 1
BITMAP
A0
50
50
A0
ENDCHAR
STARTCHAR 00BC
ENCODING 188
SWIDTH 540 0
DWIDTH 6 0
BBX 6 8 0 0
BITMAP
C8
50
50
F0
2C
3C
3C
44
ENDCHAR
STARTCHAR 00BD
ENCODING 189
SWIDTH 540 0
DWIDTH 6 0
BBX 6 8 0 0
BITMAP
C8
50
50
F0
3C
24
28
5C
ENDCHAR
STARTCHAR 00BE
ENCODING 190
SWIDTH 540 0
DWIDTH 6 0
BBX 6 8 0 0
BITMAP
C8
D0
50
D0
2C
3C
3C
44
ENDCHAR
STARTCHAR 00BF
ENCODING 191
SWIDTH 540 0
DWIDTH 6 0
BBX 5 8 0 0
BITMAP
20
20
00
20
40
88
88
70
ENDCHAR
STARTCHAR 00C0
ENCODING 192
SWIDTH 540 0
DWIDTH 6 0
BBX 4 10 1 0
BITMAP
60
00
60
90
90
F0
90
90
90
90
ENDCHAR
STARTCHAR 00C1
ENCODING 193
SWIDTH 540 0
DWIDTH 6 0
BBX 4 10 1 0
BITMAP
60
00
60
90
90
F0
90
90
90
90
ENDCHAR
STARTCHAR 00C3
ENCODING 195
SWIDTH 720 0
DWIDTH 8 0
BBX 9 6 -1 1
BITMAP
FF00
F980
F980
F980
F980
FF00
ENDCHAR
STARTCHAR 00C4
ENCODING 196
SWIDTH 540 0
DWIDTH 6 0
BBX 4 10 1 0
BITMAP
50
00
60
90
90
F0
90
90
90
90
ENDCHAR
STARTCHAR 00C5
ENCODING 197
SWIDTH 540 0
DWIDTH 6 0
BBX 4 9 1 0
BITMAP
60
60
60
90
F0
90
90
90
90
ENDCHAR
STARTCHAR 00C6
ENCODING 198
SWIDTH 540 0
DWIDTH 6 0
BBX 6 6 0 0
BITMAP
78
F8
F0
E0
FC
78
ENDCHAR
STARTCHAR 00C7
ENCODING 199
SWIDTH 540 0
DWIDTH 6 0
BBX 5 10 0 -2
BITMAP
30
48
40
40
40
40
48
30
20
E0
ENDCHAR
STARTCHAR 00C8
ENCODING 200
SWIDTH 540 0
DWIDTH 6 0
BBX 4 10 1 0
BITMAP
60
00
F0
80
80
E0
80
80
80
F0
ENDCHAR
STARTCHAR 00C9
ENCODING 201
SWIDTH 540 0
DWIDTH 6 0
BBX 4 10 1 0
BITMAP
60
00
F0
80
80
E0
80
80
80
F0
ENDCHAR
STARTCHAR 00C2
ENCODING 202
SWIDTH 720 0
DWIDTH 8 0
BBX 8 8 0 0
BITMAP
F8
F8
FB
FB
FB
03
1F
1F
ENDCHAR
STARTCHAR 00CB
ENCODING 203
SWIDTH 540 0
DWIDTH 6 0
BBX 4 10 1 0
BITMAP
50
00
F0
80
80
E0
80
80
80
F0
ENDCHAR
STARTCHAR 00CC
ENCODING 204
SWIDTH 540 0
DWIDTH 6 0
BBX 5 10 0 0
BITMAP
30
00
F8
20
20
20
20
20
20
F8
ENDCHAR
STARTCHAR 00CD
ENCODING 205
SWIDTH 540 0
DWIDTH 6 0
BBX 5 10 0 0
BITMAP
30
00
F8
20
20
20
20
20
20
F8
ENDCHAR
STARTCHAR 00CE
ENCODING 206
SWIDTH 630 0
DWIDTH 7 0
BBX 8 8 0 0
BITMAP
3F
3F
21
21
21
21
E7
E7
ENDCHAR
STARTCHAR 00CF
ENCODING 207
SWIDTH 720 0
DWIDTH 8 0
BBX 8 8 0 0
BITMAP
DB
81
3C
BD
BD
3C
81
DB
ENDCHAR
STARTCHAR 00D0
ENCODING 208
SWIDTH 630 0
DWIDTH 7 0
BBX 7 8 0 0
BITMAP
38
38
38
38
FE
7C
38
10
ENDCHAR
STARTCHAR 00D1
ENCODING 209
SWIDTH 630 0
DWIDTH 7 0
BBX 7 8 0 0
BITMAP
10
38
7C
FE
38
38
38
38
ENDCHAR
STARTCHAR 00D2
ENCODING 210
SWIDTH 540 0
DWIDTH 6 0
BBX 4 10 1 0
BITMAP
60
00
60
90
90
90
90
90
90
60
ENDCHAR
STARTCHAR 00D3
ENCODING 211
SWIDTH 540 0
DWIDTH 6 0
BBX 4 10 1 0
BITMAP
60
00
60
90
90
90
90
90
90
60
ENDCHAR
STARTCHAR 00D4
ENCODING 212
SWIDTH 720 0
DWIDTH 8 0
BBX 8 8 0 0
BITMAP
10
32
F1
F5
F5
F1
32
10
ENDCHAR
STARTCHAR 00D5
ENCODING 213
SWIDTH 720 0
DWIDTH 8 0
BBX 8 8 -1 0
BITMAP
3C
6E
EF
EF
E1
FF
7E
3C
ENDCHAR
STARTCHAR 00D6
ENCODING 214
SWIDTH 540 0
DWIDTH 6 0
BBX 4 10 1 0
BITMAP
50
00
60
90
90
90
90
90
90
60
ENDCHAR
STARTCHAR 00D7
ENCODING 215
SWIDTH 540 0
DWIDTH 6 0
BBX 4 4 1 1
BITMAP
90
60
60
90
ENDCHAR
STARTCHAR 00D8
ENCODING 216
SWIDTH 540 0
DWIDTH 6 0
BBX 4 8 1 0
BITMAP
70
90
B0
B0
D0
D0
90
E0
ENDCHAR
STARTCHAR 00D9
ENCODING 217
SWIDTH 540 0
DWIDTH 6 0
BBX 4 10 1 0
BITMAP
60
00
90
90
90
90
90
90
90
60
ENDCHAR
STARTCHAR 00DA
ENCODING 218
SWIDTH 540 0
DWIDTH 6 0
BBX 4 10 1 0
BITMAP
60
00
90
90
90
90
90
90
90
60
ENDCHAR
STARTCHAR 00DB
ENCODING 219
SWIDTH 540 0
DWIDTH 6 0
BBX 4 10 1 0
BITMAP
60
00
90
90
90
90
90
90
90
60
ENDCHAR
STARTCHAR 00DC
ENCODING 220
SWIDTH 540 0
DWIDTH 6 0
BBX 4 10 1 0
BITMAP
50
00
90
90
90
90
90
90
90
60
ENDCHAR
STARTCHAR 00DD
ENCODING 221
SWIDTH 540 0
DWIDTH 6 0
BBX 5 10 0 0
BITMAP
30
00
88
50
50
50
20
20
20
20
ENDCHAR
STARTCHAR 00DE
ENCODING 222
SWIDTH 630 0
DWIDTH 7 0
BBX 7 8 0 0
BITMAP
AA
00
FE
FE
FE
FE
00
AA
ENDCHAR
STARTCHAR 00DF
ENCODING 223
SWIDTH 540 0
DWIDTH 6 0
BBX 4 8 1 0
BITMAP
60
90
90
90
F0
90
90
E0
ENDCHAR
STARTCHAR 00E0
ENCODING 224
SWIDTH 540 0
DWIDTH 6 0
BBX 6 6 0 0
BITMAP
C0
F0
FC
FC
F0
C0
ENDCHAR
STARTCHAR 00E1
ENCODING 225
SWIDTH 540 0
DWIDTH 6 0
BBX 6 6 0 0
BITMAP
CC
CC
CC
CC
CC
CC
ENDCHAR
STARTCHAR 00E0
ENCODING 226
SWIDTH 630 0
DWIDTH 7 0
BBX 7 6 0 0
BITMAP
C6
DE
FE
FE
DE
C6
ENDCHAR
STARTCHAR 00E0
ENCODING 227
SWIDTH 630 0
DWIDTH 7 0
BBX 7 6 0 0
BITMAP
C6
F6
FE
FE
F6
C6
ENDCHAR
STARTCHAR 00E1
ENCODING 228
SWIDTH 540 0
DWIDTH 6 0
BBX 6 6 0 0
BITMAP
FC
FC
FC
FC
FC
FC
ENDCHAR
STARTCHAR 00E5
ENCODING 229
SWIDTH 540 0
DWIDTH 6 0
BBX 4 9 1 0
BITMAP
E0
A0
E0
60
10
70
90
90
70
ENDCHAR
STARTCHAR 00E6
ENCODING 230
SWIDTH 540 0
DWIDTH 6 0
BBX 5 6 0 0
BITMAP
78
28
F8
A0
A8
F8
ENDCHAR
STARTCHAR 00E7
ENCODING 231
SWIDTH 540 0
DWIDTH 6 0
BBX 5 8 0 -2
BITMAP
30
48
40
40
48
30
20
E0
ENDCHAR
STARTCHAR 00E8
ENCODING 232
SWIDTH 540 0
DWIDTH 6 0
BBX 4 8 1 0
BITMAP
60
00
60
90
F0
80
80
70
ENDCHAR
STARTCHAR 00E9
ENCODING 233
SWIDTH 540 0
DWIDTH 6 0
BBX 4 8 1 0
BITMAP
60
00
60
90
F0
80
80
70
ENDCHAR
STARTCHAR 00EA
ENCODING 234
SWIDTH 540 0
DWIDTH 6 0
BBX 4 8 1 0
BITMAP
60
00
60
90
F0
80
80
70
ENDCHAR
STARTCHAR 00EB
ENCODING 235
SWIDTH 540 0
DWIDTH 6 0
BBX 4 8 1 0
BITMAP
50
00
60
90
F0
80
80
70
ENDCHAR
STARTCHAR 00EC
ENCODING 236
SWIDTH 540 0
DWIDTH 6 0
BBX 2 8 1 0
BITMAP
40
00
C0
40
40
40
40
40
ENDCHAR
STARTCHAR 00ED
ENCODING 237
SWIDTH 540 0
DWIDTH 6 0
BBX 2 8 1 0
BITMAP
40
00
C0
40
40
40
40
40
ENDCHAR
STARTCHAR 00EE
ENCODING 238
SWIDTH 540 0
DWIDTH 6 0
BBX 2 8 1 0
BITMAP
40
00
C0
40
40
40
40
40
ENDCHAR
STARTCHAR 00EF
ENCODING 239
SWIDTH 540 0
DWIDTH 6 0
BBX 3 8 1 0
BITMAP
A0
00
C0
40
40
40
40
40
ENDCHAR
STARTCHAR 00F0
ENCODING 240
SWIDTH 540 0
DWIDTH 6 0
BBX 4 7 1 0
BITMAP
20
60
10
F0
90
90
60
ENDCHAR
STARTCHAR 00F1
ENCODING 241
SWIDTH 540 0
DWIDTH 6 0
BBX 4 8 1 0
BITMAP
F0
00
E0
90
90
90
90
90
ENDCHAR
STARTCHAR 00F2
ENCODING 242
SWIDTH 540 0
DWIDTH 6 0
BBX 4 8 1 0
BITMAP
60
00
60
90
90
90
90
60
ENDCHAR
STARTCHAR 00F3
ENCODING 243
SWIDTH 540 0
DWIDTH 6 0
BBX 4 8 1 0
BITMAP
40
00
60
90
90
90
90
60
ENDCHAR
STARTCHAR 00F4
ENCODING 244
SWIDTH 540 0
DWIDTH 6 0
BBX 4 8 1 0
BITMAP
60
00
60
90
90
90
90
60
ENDCHAR
STARTCHAR 00F5
ENCODING 245
SWIDTH 540 0
DWIDTH 6 0
BBX 4 8 1 0
BITMAP
F0
00
60
90
90
90
90
60
ENDCHAR
STARTCHAR 00F6
ENCODING 246
SWIDTH 540 0
DWIDTH 6 0
BBX 4 8 1 0
BITMAP
50
00
60
90
90
90
90
60
ENDCHAR
STARTCHAR 00F7
ENCODING 247
SWIDTH 540 0
DWIDTH 6 0
BBX 6 7 0 1
BITMAP
30
30
00
FC
00
30
30
ENDCHAR
STARTCHAR 00F8
ENCODING 248
SWIDTH 540 0
DWIDTH 6 0
BBX 4 6 1 0
BITMAP
70
90
B0
D0
90
E0
ENDCHAR
STARTCHAR 00F9
ENCODING 249
SWIDTH 540 0
DWIDTH 6 0
BBX 4 8 1 0
BITMAP
60
00
90
90
90
90
90
70
ENDCHAR
STARTCHAR 00FA
ENCODING 250
SWIDTH 540 0
DWIDTH 6 0
BBX 4 8 1 0
BITMAP
60
00
90
90
90
90
90
70
ENDCHAR
STARTCHAR 00FB
ENCODING 251
SWIDTH 540 0
DWIDTH 6 0
BBX 4 8 1 0
BITMAP
60
00
90
90
90
90
90
70
ENDCHAR
STARTCHAR 00FC
ENCODING 252
SWIDTH 540 0
DWIDTH 6 0
BBX 4 8 1 0
BITMAP
50
00
90
90
90
90
90
70
ENDCHAR
STARTCHAR 00FD
ENCODING 253
SWIDTH 540 0
DWIDTH 6 0
BBX 4 11 1 -3
BITMAP
60
00
90
90
90
90
90
70
10
10
60
ENDCHAR
STARTCHAR 00FE
ENCODING 254
SWIDTH 540 0
DWIDTH 6 0
BBX 4 11 1 -3
BITMAP
80
80
80
E0
90
90
90
E0
80
80
80
ENDCHAR
STARTCHAR 00FF
ENCODING 255
SWIDTH 540 0
DWIDTH 6 0
BBX 4 11 1 -3
BITMAP
50
00
90
90
90
90
90
70
10
10
60
ENDCHAR
STARTCHAR 0100
ENCODING 256
SWIDTH 540 0
DWIDTH 6 0
BBX 4 9 1 0
BITMAP
F0
60
90
90
F0
90
90
90
90
ENDCHAR
STARTCHAR 0101
ENCODING 257
SWIDTH 540 0
DWIDTH 6 0
BBX 4 7 1 0
BITMAP
F0
60
10
70
90
90
70
ENDCHAR
STARTCHAR 0102
ENCODING 258
SWIDTH 540 0
DWIDTH 6 0
BBX 4 11 1 0
BITMAP
60
60
00
60
90
90
F0
90
90
90
90
ENDCHAR
STARTCHAR 0103
ENCODING 259
SWIDTH 540 0
DWIDTH 6 0
BBX 4 9 1 0
BITMAP
60
60
00
60
10
70
90
90
70
ENDCHAR
STARTCHAR 0104
ENCODING 260
SWIDTH 540 0
DWIDTH 6 0
BBX 6 10 0 -2
BITMAP
60
90
90
F0
90
90
90
90
08
0C
ENDCHAR
STARTCHAR 0105
ENCODING 261
SWIDTH 540 0
DWIDTH 6 0
BBX 4 8 1 -2
BITMAP
60
10
70
90
90
70
20
30
ENDCHAR
STARTCHAR 0106
ENCODING 262
SWIDTH 540 0
DWIDTH 6 0
BBX 4 10 1 0
BITMAP
60
00
60
90
80
80
80
80
90
60
ENDCHAR
STARTCHAR 0107
ENCODING 263
SWIDTH 540 0
DWIDTH 6 0
BBX 4 8 1 0
BITMAP
60
00
60
90
80
80
90
60
ENDCHAR
STARTCHAR 0108
ENCODING 264
SWIDTH 540 0
DWIDTH 6 0
BBX 4 10 1 0
BITMAP
60
00
60
90
80
80
80
80
90
60
ENDCHAR
STARTCHAR 0109
ENCODING 265
SWIDTH 540 0
DWIDTH 6 0
BBX 4 8 1 0
BITMAP
60
00
60
90
80
80
90
60
ENDCHAR
STARTCHAR 010A
ENCODING 266
SWIDTH 540 0
DWIDTH 6 0
BBX 4 10 1 0
BITMAP
20
00
60
90
80
80
80
80
90
60
ENDCHAR
STARTCHAR 010B
ENCODING 267
SWIDTH 540 0
DWIDTH 6 0
BBX 4 8 1 0
BITMAP
20
00
60
90
80
80
90
60
ENDCHAR
STARTCHAR 010C
ENCODING 268
SWIDTH 540 0
DWIDTH 6 0
BBX 4 10 1 0
BITMAP
60
00
60
90
80
80
80
80
90
60
ENDCHAR
STARTCHAR 010D
ENCODING 269
SWIDTH 540 0
DWIDTH 6 0
BBX 4 8 1 0
BITMAP
60
00
60
90
80
80
90
60
ENDCHAR
STARTCHAR 010E
ENCODING 270
SWIDTH 540 0
DWIDTH 6 0
BBX 4 10 1 0
BITMAP
60
00
E0
90
90
90
90
90
90
E0
ENDCHAR
STARTCHAR 010F
ENCODING 271
SWIDTH 540 0
DWIDTH 6 0
BBX 5 9 0 0
BITMAP
08
10
10
70
90
90
90
90
70
ENDCHAR
STARTCHAR 0110
ENCODING 272
SWIDTH 540 0
DWIDTH 6 0
BBX 5 8 0 0
BITMAP
70
48
48
E8
48
48
48
70
ENDCHAR
STARTCHAR 0111
ENCODING 273
SWIDTH 540 0
DWIDTH 6 0
BBX 5 8 1 0
BITMAP
10
38
70
90
90
90
90
70
ENDCHAR
STARTCHAR 0112
ENCODING 274
SWIDTH 540 0
DWIDTH 6 0
BBX 4 9 1 0
BITMAP
F0
F0
80
80
E0
80
80
80
F0
ENDCHAR
STARTCHAR 0113
ENCODING 275
SWIDTH 540 0
DWIDTH 6 0
BBX 4 7 1 0
BITMAP
F0
60
90
F0
80
80
70
ENDCHAR
STARTCHAR 0114
ENCODING 276
SWIDTH 540 0
DWIDTH 6 0
BBX 4 11 1 0
BITMAP
60
60
00
F0
80
80
E0
80
80
80
F0
ENDCHAR
STARTCHAR 0115
ENCODING 277
SWIDTH 540 0
DWIDTH 6 0
BBX 4 9 1 0
BITMAP
60
60
00
60
90
F0
80
80
70
ENDCHAR
STARTCHAR 0116
ENCODING 278
SWIDTH 540 0
DWIDTH 6 0
BBX 4 10 1 0
BITMAP
20
00
F0
80
80
E0
80
80
80
F0
ENDCHAR
STARTCHAR 0117
ENCODING 279
SWIDTH 540 0
DWIDTH 6 0
BBX 4 8 1 0
BITMAP
20
00
60
90
F0
80
80
70
ENDCHAR
STARTCHAR 0118
ENCODING 280
SWIDTH 540 0
DWIDTH 6 0
BBX 4 10 1 -2
BITMAP
F0
80
80
E0
80
80
80
F0
20
30
ENDCHAR
STARTCHAR 0119
ENCODING 281
SWIDTH 540 0
DWIDTH 6 0
BBX 4 8 1 -2
BITMAP
60
90
F0
80
80
70
20
30
ENDCHAR
STARTCHAR 011A
ENCODING 282
SWIDTH 540 0
DWIDTH 6 0
BBX 4 10 1 0
BITMAP
60
00
F0
80
80
E0
80
80
80
F0
ENDCHAR
STARTCHAR 011B
ENCODING 283
SWIDTH 540 0
DWIDTH 6 0
BBX 4 8 1 0
BITMAP
60
00
60
90
F0
80
80
70
ENDCHAR
STARTCHAR 011C
ENCODING 284
SWIDTH 540 0
DWIDTH 6 0
BBX 4 10 1 0
BITMAP
60
00
60
90
80
B0
90
90
90
70
ENDCHAR
STARTCHAR 011D
ENCODING 285
SWIDTH 540 0
DWIDTH 6 0
BBX 4 11 1 -3
BITMAP
60
00
70
90
90
90
90
70
10
10
60
ENDCHAR
STARTCHAR 011E
ENCODING 286
SWIDTH 540 0
DWIDTH 6 0
BBX 4 11 1 0
BITMAP
60
60
00
60
90
80
B0
90
90
90
70
ENDCHAR
STARTCHAR 011F
ENCODING 287
SWIDTH 540 0
DWIDTH 6 0
BBX 4 12 1 -3
BITMAP
60
60
00
70
90
90
90
90
70
10
10
60
ENDCHAR
STARTCHAR 0120
ENCODING 288
SWIDTH 540 0
DWIDTH 6 0
BBX 4 10 1 0
BITMAP
20
00
60
90
80
B0
90
90
90
70
ENDCHAR
STARTCHAR 0121
ENCODING 289
SWIDTH 540 0
DWIDTH 6 0
BBX 4 11 1 -3
BITMAP
20
00
70
90
90
90
90
70
10
10
60
ENDCHAR
STARTCHAR 0122
ENCODING 290
SWIDTH 540 0
DWIDTH 6 0
BBX 4 12 1 -4
BITMAP
60
90
80
B0
90
90
90
70
60
60
20
60
ENDCHAR
STARTCHAR 0123
ENCODING 291
SWIDTH 540 0
DWIDTH 6 0
BBX 4 14 1 -3
BITMAP
60
40
60
60
00
70
90
90
90
90
70
10
10
60
ENDCHAR
STARTCHAR 0124
ENCODING 292
SWIDTH 540 0
DWIDTH 6 0
BBX 4 10 1 0
BITMAP
60
00
90
90
90
F0
90
90
90
90
ENDCHAR
STARTCHAR 0125
ENCODING 293
SWIDTH 540 0
DWIDTH 6 0
BBX 4 8 1 0
BITMAP
E0
80
E0
90
90
90
90
90
ENDCHAR
STARTCHAR 0126
ENCODING 294
SWIDTH 540 0
DWIDTH 6 0
BBX 4 8 1 0
BITMAP
90
90
F0
F0
90
90
90
90
ENDCHAR
STARTCHAR 0127
ENCODING 295
SWIDTH 540 0
DWIDTH 6 0
BBX 5 8 0 0
BITMAP
40
E0
70
48
48
48
48
48
ENDCHAR
STARTCHAR 0128
ENCODING 296
SWIDTH 540 0
DWIDTH 6 0
BBX 5 10 0 0
BITMAP
78
00
F8
20
20
20
20
20
20
F8
ENDCHAR
STARTCHAR 0129
ENCODING 297
SWIDTH 540 0
DWIDTH 6 0
BBX 4 8 1 0
BITMAP
F0
00
C0
40
40
40
40
40
ENDCHAR
STARTCHAR 012A
ENCODING 298
SWIDTH 540 0
DWIDTH 6 0
BBX 5 9 0 0
BITMAP
78
F8
20
20
20
20
20
20
F8
ENDCHAR
STARTCHAR 012B
ENCODING 299
SWIDTH 540 0
DWIDTH 6 0
BBX 3 7 1 0
BITMAP
60
C0
40
40
40
40
40
ENDCHAR
STARTCHAR 012C
ENCODING 300
SWIDTH 540 0
DWIDTH 6 0
BBX 5 11 0 0
BITMAP
30
30
00
F8
20
20
20
20
20
20
F8
ENDCHAR
STARTCHAR 012D
ENCODING 301
SWIDTH 540 0
DWIDTH 6 0
BBX 3 9 1 0
BITMAP
60
60
00
C0
40
40
40
40
40
ENDCHAR
STARTCHAR 012E
ENCODING 302
SWIDTH 540 0
DWIDTH 6 0
BBX 5 10 0 -2
BITMAP
F8
20
20
20
20
20
20
F8
10
18
ENDCHAR
STARTCHAR 012F
ENCODING 303
SWIDTH 540 0
DWIDTH 6 0
BBX 4 10 1 -2
BITMAP
40
00
C0
40
40
40
40
40
20
30
ENDCHAR
STARTCHAR 0130
ENCODING 304
SWIDTH 540 0
DWIDTH 6 0
BBX 5 10 0 0
BITMAP
10
00
F8
20
20
20
20
20
20
F8
ENDCHAR
STARTCHAR 0131
ENCODING 305
SWIDTH 540 0
DWIDTH 6 0
BBX 2 6 1 0
BITMAP
C0
40
40
40
40
40
ENDCHAR
STARTCHAR 0132
ENCODING 306
SWIDTH 540 0
DWIDTH 6 0
BBX 5 8 0 0
BITMAP
C8
48
48
48
48
48
68
F8
ENDCHAR
STARTCHAR 0133
ENCODING 307
SWIDTH 540 0
DWIDTH 6 0
BBX 5 10 0 -2
BITMAP
48
00
D8
48
48
48
48
48
08
30
ENDCHAR
STARTCHAR 0134
ENCODING 308
SWIDTH 540 0
DWIDTH 6 0
BBX 4 10 1 0
BITMAP
60
00
10
10
10
10
10
90
90
60
ENDCHAR
STARTCHAR 0135
ENCODING 309
SWIDTH 540 0
DWIDTH 6 0
BBX 4 10 1 -2
BITMAP
60
00
30
10
10
10
10
10
10
E0
ENDCHAR
STARTCHAR 0136
ENCODING 310
SWIDTH 540 0
DWIDTH 6 0
BBX 4 12 1 -4
BITMAP
90
A0
C0
C0
C0
C0
A0
90
60
60
20
60
ENDCHAR
STARTCHAR 0137
ENCODING 311
SWIDTH 540 0
DWIDTH 6 0
BBX 4 12 1 -4
BITMAP
80
80
90
A0
C0
C0
A0
90
60
60
20
60
ENDCHAR
STARTCHAR 0138
ENCODING 312
SWIDTH 540 0
DWIDTH 6 0
BBX 4 6 1 0
BITMAP
90
A0
C0
C0
A0
90
ENDCHAR
STARTCHAR 0139
ENCODING 313
SWIDTH 540 0
DWIDTH 6 0
BBX 4 10 1 0
BITMAP
60
00
80
80
80
80
80
80
80
F0
ENDCHAR
STARTCHAR 013A
ENCODING 314
SWIDTH 540 0
DWIDTH 6 0
BBX 3 10 1 0
BITMAP
60
00
C0
40
40
40
40
40
40
40
ENDCHAR
STARTCHAR 013B
ENCODING 315
SWIDTH 540 0
DWIDTH 6 0
BBX 4 12 1 -4
BITMAP
80
80
80
80
80
80
80
F0
40
40
40
40
ENDCHAR
STARTCHAR 013C
ENCODING 316
SWIDTH 540 0
DWIDTH 6 0
BBX 3 12 1 -4
BITMAP
C0
40
40
40
40
40
40
40
60
60
20
60
ENDCHAR
STARTCHAR 013D
ENCODING 317
SWIDTH 540 0
DWIDTH 6 0
BBX 4 10 1 0
BITMAP
60
60
A0
E0
80
80
80
80
80
F0
ENDCHAR
STARTCHAR 013E
ENCODING 318
SWIDTH 540 0
DWIDTH 6 0
BBX 4 11 1 0
BITMAP
30
30
10
F0
40
40
40
40
40
40
40
ENDCHAR
STARTCHAR 013F
ENCODING 319
SWIDTH 540 0
DWIDTH 6 0
BBX 5 8 1 0
BITMAP
80
80
98
98
80
80
80
F0
ENDCHAR
STARTCHAR 0140
ENCODING 320
SWIDTH 540 0
DWIDTH 6 0
BBX 4 8 1 0
BITMAP
C0
40
70
70
40
40
40
40
ENDCHAR
STARTCHAR 0141
ENCODING 321
SWIDTH 540 0
DWIDTH 6 0
BBX 5 8 0 0
BITMAP
40
40
40
60
40
C0
40
78
ENDCHAR
STARTCHAR 0142
ENCODING 322
SWIDTH 540 0
DWIDTH 6 0
BBX 3 8 1 0
BITMAP
C0
40
40
40
60
C0
40
40
ENDCHAR
STARTCHAR 0143
ENCODING 323
SWIDTH 540 0
DWIDTH 6 0
BBX 4 10 1 0
BITMAP
60
00
90
D0
D0
D0
B0
B0
B0
90
ENDCHAR
STARTCHAR 0144
ENCODING 324
SWIDTH 540 0
DWIDTH 6 0
BBX 4 8 1 0
BITMAP
40
00
E0
90
90
90
90
90
ENDCHAR
STARTCHAR 0145
ENCODING 325
SWIDTH 540 0
DWIDTH 6 0
BBX 4 12 1 -4
BITMAP
90
D0
D0
D0
B0
B0
B0
90
60
60
20
60
ENDCHAR
STARTCHAR 0146
ENCODING 326
SWIDTH 540 0
DWIDTH 6 0
BBX 4 10 1 -4
BITMAP
E0
90
90
90
90
90
60
60
20
60
ENDCHAR
STARTCHAR 0147
ENCODING 327
SWIDTH 540 0
DWIDTH 6 0
BBX 4 10 1 0
BITMAP
60
00
90
D0
D0
D0
B0
B0
B0
90
ENDCHAR
STARTCHAR 0148
ENCODING 328
SWIDTH 540 0
DWIDTH 6 0
BBX 4 8 1 0
BITMAP
60
00
E0
90
90
90
90
90
ENDCHAR
STARTCHAR 0149
ENCODING 329
SWIDTH 540 0
DWIDTH 6 0
BBX 4 9 1 0
BITMAP
30
30
10
F0
90
90
90
90
90
ENDCHAR
STARTCHAR 014A
ENCODING 330
SWIDTH 540 0
DWIDTH 6 0
BBX 4 11 1 -3
BITMAP
90
D0
D0
D0
B0
B0
B0
90
10
90
60
ENDCHAR
STARTCHAR 014B
ENCODING 331
SWIDTH 540 0
DWIDTH 6 0
BBX 4 8 1 -2
BITMAP
E0
90
90
90
90
90
10
60
ENDCHAR
STARTCHAR 014C
ENCODING 332
SWIDTH 540 0
DWIDTH 6 0
BBX 4 9 1 0
BITMAP
F0
60
90
90
90
90
90
90
60
ENDCHAR
STARTCHAR 014D
ENCODING 333
SWIDTH 540 0
DWIDTH 6 0
BBX 4 7 1 0
BITMAP
F0
60
90
90
90
90
60
ENDCHAR
STARTCHAR 014E
ENCODING 334
SWIDTH 540 0
DWIDTH 6 0
BBX 4 10 1 0
BITMAP
60
00
60
90
90
90
90
90
90
60
ENDCHAR
STARTCHAR 014F
ENCODING 335
SWIDTH 540 0
DWIDTH 6 0
BBX 4 9 1 0
BITMAP
60
60
00
60
90
90
90
90
60
ENDCHAR
STARTCHAR 0150
ENCODING 336
SWIDTH 540 0
DWIDTH 6 0
BBX 4 10 1 0
BITMAP
90
00
60
90
90
90
90
90
90
60
ENDCHAR
STARTCHAR 0151
ENCODING 337
SWIDTH 540 0
DWIDTH 6 0
BBX 4 8 1 0
BITMAP
90
00
60
90
90
90
90
60
ENDCHAR
STARTCHAR 0152
ENCODING 338
SWIDTH 540 0
DWIDTH 6 0
BBX 4 8 1 0
BITMAP
F0
A0
A0
B0
A0
A0
A0
F0
ENDCHAR
STARTCHAR 0153
ENCODING 339
SWIDTH 540 0
DWIDTH 6 0
BBX 5 6 1 0
BITMAP
F8
A8
B8
A0
A0
F8
ENDCHAR
STARTCHAR 0154
ENCODING 340
SWIDTH 540 0
DWIDTH 6 0
BBX 4 10 1 0
BITMAP
60
00
E0
90
90
E0
C0
A0
A0
90
ENDCHAR
STARTCHAR 0155
ENCODING 341
SWIDTH 540 0
DWIDTH 6 0
BBX 4 8 1 0
BITMAP
60
00
E0
90
80
80
80
80
ENDCHAR
STARTCHAR 0156
ENCODING 342
SWIDTH 540 0
DWIDTH 6 0
BBX 4 12 1 -4
BITMAP
E0
90
90
E0
C0
A0
A0
90
60
60
20
60
ENDCHAR
STARTCHAR 0157
ENCODING 343
SWIDTH 540 0
DWIDTH 6 0
BBX 4 10 1 -4
BITMAP
E0
90
80
80
80
80
C0
C0
40
C0
ENDCHAR
STARTCHAR 0158
ENCODING 344
SWIDTH 540 0
DWIDTH 6 0
BBX 4 10 1 0
BITMAP
60
00
E0
90
90
E0
C0
A0
A0
90
ENDCHAR
STARTCHAR 0159
ENCODING 345
SWIDTH 540 0
DWIDTH 6 0
BBX 4 8 1 0
BITMAP
60
00
E0
90
80
80
80
80
ENDCHAR
STARTCHAR 015A
ENCODING 346
SWIDTH 540 0
DWIDTH 6 0
BBX 4 10 1 0
BITMAP
60
00
70
80
80
60
10
10
10
E0
ENDCHAR
STARTCHAR 015B
ENCODING 347
SWIDTH 540 0
DWIDTH 6 0
BBX 4 8 1 0
BITMAP
60
00
70
80
E0
10
10
E0
ENDCHAR
STARTCHAR 015C
ENCODING 348
SWIDTH 540 0
DWIDTH 6 0
BBX 4 10 1 0
BITMAP
60
00
70
80
80
60
10
10
10
E0
ENDCHAR
STARTCHAR 015D
ENCODING 349
SWIDTH 540 0
DWIDTH 6 0
BBX 4 8 1 0
BITMAP
60
00
70
80
E0
10
10
E0
ENDCHAR
STARTCHAR 015E
ENCODING 350
SWIDTH 540 0
DWIDTH 6 0
BBX 4 10 1 -2
BITMAP
70
80
80
80
60
10
10
E0
40
C0
ENDCHAR
STARTCHAR 015F
ENCODING 351
SWIDTH 540 0
DWIDTH 6 0
BBX 4 8 1 -2
BITMAP
70
80
E0
10
10
E0
40
C0
ENDCHAR
STARTCHAR 0160
ENCODING 352
SWIDTH 540 0
DWIDTH 6 0
BBX 4 10 1 0
BITMAP
60
00
70
80
80
60
10
10
10
E0
ENDCHAR
STARTCHAR 0161
ENCODING 353
SWIDTH 540 0
DWIDTH 6 0
BBX 4 8 1 0
BITMAP
60
00
70
80
E0
10
10
E0
ENDCHAR
STARTCHAR 0162
ENCODING 354
SWIDTH 540 0
DWIDTH 6 0
BBX 5 12 0 -4
BITMAP
F8
20
20
20
20
20
20
20
30
30
10
30
ENDCHAR
STARTCHAR 0163
ENCODING 355
SWIDTH 540 0
DWIDTH 6 0
BBX 4 12 1 -4
BITMAP
40
40
E0
40
40
40
40
30
20
20
20
20
ENDCHAR
STARTCHAR 0164
ENCODING 356
SWIDTH 540 0
DWIDTH 6 0
BBX 5 10 0 0
BITMAP
30
00
F8
20
20
20
20
20
20
20
ENDCHAR
STARTCHAR 0165
ENCODING 357
SWIDTH 540 0
DWIDTH 6 0
BBX 5 10 1 0
BITMAP
18
08
58
40
E0
40
40
40
40
30
ENDCHAR
STARTCHAR 0166
ENCODING 358
SWIDTH 540 0
DWIDTH 6 0
BBX 5 8 0 0
BITMAP
F8
20
20
F8
20
20
20
20
ENDCHAR
STARTCHAR 0167
ENCODING 359
SWIDTH 540 0
DWIDTH 6 0
BBX 4 8 1 0
BITMAP
40
40
F0
40
F0
40
40
30
ENDCHAR
STARTCHAR 0168
ENCODING 360
SWIDTH 540 0
DWIDTH 6 0
BBX 4 10 1 0
BITMAP
F0
00
90
90
90
90
90
90
90
60
ENDCHAR
STARTCHAR 0169
ENCODING 361
SWIDTH 540 0
DWIDTH 6 0
BBX 4 8 1 0
BITMAP
F0
00
90
90
90
90
90
70
ENDCHAR
STARTCHAR 016A
ENCODING 362
SWIDTH 540 0
DWIDTH 6 0
BBX 4 10 1 0
BITMAP
F0
00
90
90
90
90
90
90
90
60
ENDCHAR
STARTCHAR 016B
ENCODING 363
SWIDTH 540 0
DWIDTH 6 0
BBX 4 7 1 0
BITMAP
F0
90
90
90
90
90
70
ENDCHAR
STARTCHAR 016C
ENCODING 364
SWIDTH 540 0
DWIDTH 6 0
BBX 4 11 1 0
BITMAP
60
60
00
90
90
90
90
90
90
90
60
ENDCHAR
STARTCHAR 016D
ENCODING 365
SWIDTH 540 0
DWIDTH 6 0
BBX 4 9 1 0
BITMAP
60
60
00
90
90
90
90
90
70
ENDCHAR
STARTCHAR 016E
ENCODING 366
SWIDTH 540 0
DWIDTH 6 0
BBX 4 11 1 0
BITMAP
E0
A0
E0
90
90
90
90
90
90
90
60
ENDCHAR
STARTCHAR 016F
ENCODING 367
SWIDTH 540 0
DWIDTH 6 0
BBX 4 9 1 0
BITMAP
E0
A0
E0
90
90
90
90
90
70
ENDCHAR
STARTCHAR 0170
ENCODING 368
SWIDTH 540 0
DWIDTH 6 0
BBX 4 10 1 0
BITMAP
90
00
90
90
90
90
90
90
90
60
ENDCHAR
STARTCHAR 0171
ENCODING 369
SWIDTH 540 0
DWIDTH 6 0
BBX 4 8 1 0
BITMAP
90
00
90
90
90
90
90
70
ENDCHAR
STARTCHAR 0172
ENCODING 370
SWIDTH 540 0
DWIDTH 6 0
BBX 4 10 1 -2
BITMAP
90
90
90
90
90
90
90
60
20
30
ENDCHAR
STARTCHAR 0173
ENCODING 371
SWIDTH 540 0
DWIDTH 6 0
BBX 4 8 1 -2
BITMAP
90
90
90
90
90
70
20
30
ENDCHAR
STARTCHAR 0174
ENCODING 372
SWIDTH 540 0
DWIDTH 6 0
BBX 4 10 1 0
BITMAP
60
00
90
90
90
90
90
F0
F0
90
ENDCHAR
STARTCHAR 0175
ENCODING 373
SWIDTH 540 0
DWIDTH 6 0
BBX 5 8 0 0
BITMAP
30
00
88
88
A8
A8
A8
50
ENDCHAR
STARTCHAR 0176
ENCODING 374
SWIDTH 540 0
DWIDTH 6 0
BBX 5 10 0 0
BITMAP
30
00
88
50
50
50
20
20
20
20
ENDCHAR
STARTCHAR 0177
ENCODING 375
SWIDTH 540 0
DWIDTH 6 0
BBX 4 11 1 -3
BITMAP
60
00
90
90
90
90
90
70
10
10
60
ENDCHAR
STARTCHAR 0178
ENCODING 376
SWIDTH 540 0
DWIDTH 6 0
BBX 5 10 0 0
BITMAP
28
00
88
50
50
50
20
20
20
20
ENDCHAR
STARTCHAR 0179
ENCODING 377
SWIDTH 540 0
DWIDTH 6 0
BBX 4 10 1 0
BITMAP
60
00
F0
10
20
20
40
40
80
F0
ENDCHAR
STARTCHAR 017A
ENCODING 378
SWIDTH 540 0
DWIDTH 6 0
BBX 4 8 1 0
BITMAP
60
00
F0
10
20
40
80
F0
ENDCHAR
STARTCHAR 017B
ENCODING 379
SWIDTH 540 0
DWIDTH 6 0
BBX 4 10 1 0
BITMAP
20
00
F0
10
20
20
40
40
80
F0
ENDCHAR
STARTCHAR 017C
ENCODING 380
SWIDTH 540 0
DWIDTH 6 0
BBX 4 8 1 0
BITMAP
20
00
F0
10
20
40
80
F0
ENDCHAR
STARTCHAR 017D
ENCODING 381
SWIDTH 540 0
DWIDTH 6 0
BBX 4 10 1 0
BITMAP
60
00
F0
10
20
20
40
40
80
F0
ENDCHAR
STARTCHAR 017E
ENCODING 382
SWIDTH 540 0
DWIDTH 6 0
BBX 4 8 1 0
BITMAP
60
00
F0
10
20
40
80
F0
ENDCHAR
STARTCHAR 017F
ENCODING 383
SWIDTH 540 0
DWIDTH 6 0
BBX 4 8 1 0
BITMAP
30
40
40
C0
40
40
40
40
ENDCHAR
STARTCHAR 0191
ENCODING 401
SWIDTH 540 0
DWIDTH 6 0
BBX 5 11 0 -3
BITMAP
78
40
40
40
78
40
40
40
40
40
80
ENDCHAR
STARTCHAR 0192
ENCODING 402
SWIDTH 540 0
DWIDTH 6 0
BBX 5 11 0 -3
BITMAP
18
20
20
78
20
20
20
20
20
20
C0
ENDCHAR
STARTCHAR 01CF
ENCODING 463
SWIDTH 540 0
DWIDTH 6 0
BBX 5 10 0 0
BITMAP
30
00
F8
20
20
20
20
20
20
F8
ENDCHAR
STARTCHAR 01D0
ENCODING 464
SWIDTH 540 0
DWIDTH 6 0
BBX 3 8 1 0
BITMAP
60
00
C0
40
40
40
40
40
ENDCHAR
STARTCHAR 01D1
ENCODING 465
SWIDTH 540 0
DWIDTH 6 0
BBX 4 10 1 0
BITMAP
60
00
60
90
90
90
90
90
90
60
ENDCHAR
STARTCHAR 01D2
ENCODING 466
SWIDTH 540 0
DWIDTH 6 0
BBX 4 8 1 0
BITMAP
60
00
60
90
90
90
90
60
ENDCHAR
STARTCHAR 01D3
ENCODING 467
SWIDTH 540 0
DWIDTH 6 0
BBX 4 10 1 0
BITMAP
60
00
90
90
90
90
90
90
90
60
ENDCHAR
STARTCHAR 01D4
ENCODING 468
SWIDTH 540 0
DWIDTH 6 0
BBX 4 8 1 0
BITMAP
60
00
90
90
90
90
90
70
ENDCHAR
STARTCHAR 01E6
ENCODING 486
SWIDTH 540 0
DWIDTH 6 0
BBX 4 10 1 0
BITMAP
60
00
60
90
80
B0
90
90
90
70
ENDCHAR
STARTCHAR 01E7
ENCODING 487
SWIDTH 540 0
DWIDTH 6 0
BBX 4 11 1 -3
BITMAP
60
00
70
90
90
90
90
70
10
10
60
ENDCHAR
STARTCHAR 01E8
ENCODING 488
SWIDTH 540 0
DWIDTH 6 0
BBX 4 10 1 0
BITMAP
60
00
90
A0
C0
C0
C0
C0
A0
90
ENDCHAR
STARTCHAR 01E9
ENCODING 489
SWIDTH 540 0
DWIDTH 6 0
BBX 4 8 1 0
BITMAP
E0
80
90
A0
C0
C0
A0
90
ENDCHAR
STARTCHAR 01F8
ENCODING 504
SWIDTH 540 0
DWIDTH 6 0
BBX 4 10 1 0
BITMAP
60
00
90
D0
D0
D0
B0
B0
B0
90
ENDCHAR
STARTCHAR 01F9
ENCODING 505
SWIDTH 540 0
DWIDTH 6 0
BBX 4 8 1 0
BITMAP
60
00
E0
90
90
90
90
90
ENDCHAR
STARTCHAR 01FC
ENCODING 508
SWIDTH 540 0
DWIDTH 6 0
BBX 4 10 1 0
BITMAP
60
00
70
A0
A0
F0
A0
A0
A0
B0
ENDCHAR
STARTCHAR 01FD
ENCODING 509
SWIDTH 540 0
DWIDTH 6 0
BBX 5 8 0 0
BITMAP
20
00
78
28
F8
A0
A8
F8
ENDCHAR
STARTCHAR 01FE
ENCODING 510
SWIDTH 540 0
DWIDTH 6 0
BBX 4 10 1 0
BITMAP
60
00
70
F0
B0
B0
D0
D0
90
E0
ENDCHAR
STARTCHAR 01FF
ENCODING 511
SWIDTH 540 0
DWIDTH 6 0
BBX 4 8 1 0
BITMAP
40
00
70
90
B0
D0
90
E0
ENDCHAR
STARTCHAR 0218
ENCODING 536
SWIDTH 540 0
DWIDTH 6 0
BBX 4 12 1 -4
BITMAP
70
80
80
60
10
10
10
E0
60
60
20
60
ENDCHAR
STARTCHAR 0219
ENCODING 537
SWIDTH 540 0
DWIDTH 6 0
BBX 4 10 1 -4
BITMAP
70
80
E0
10
10
E0
40
40
40
40
ENDCHAR
STARTCHAR 021A
ENCODING 538
SWIDTH 540 0
DWIDTH 6 0
BBX 5 12 0 -4
BITMAP
F8
20
20
20
20
20
20
20
30
30
10
30
ENDCHAR
STARTCHAR 021B
ENCODING 539
SWIDTH 540 0
DWIDTH 6 0
BBX 4 12 1 -4
BITMAP
40
40
E0
40
40
40
40
30
30
30
10
30
ENDCHAR
STARTCHAR 0226
ENCODING 550
SWIDTH 540 0
DWIDTH 6 0
BBX 4 10 1 0
BITMAP
20
00
60
90
90
F0
90
90
90
90
ENDCHAR
STARTCHAR 0227
ENCODING 551
SWIDTH 540 0
DWIDTH 6 0
BBX 4 8 1 0
BITMAP
20
00
60
10
70
90
90
70
ENDCHAR
STARTCHAR 0232
ENCODING 562
SWIDTH 540 0
DWIDTH 6 0
BBX 5 10 0 0
BITMAP
78
00
88
50
50
50
20
20
20
20
ENDCHAR
STARTCHAR 0233
ENCODING 563
SWIDTH 540 0
DWIDTH 6 0
BBX 4 11 1 -3
BITMAP
F0
00
90
90
90
90
90
70
10
10
60
ENDCHAR
STARTCHAR 02C6
ENCODING 710
SWIDTH 540 0
DWIDTH 6 0
BBX 2 1 2 7
BITMAP
C0
ENDCHAR
STARTCHAR 02C7
ENCODING 711
SWIDTH 540 0
DWIDTH 6 0
BBX 2 1 2 7
BITMAP
C0
ENDCHAR
STARTCHAR 02D8
ENCODING 728
SWIDTH 540 0
DWIDTH 6 0
BBX 2 2 2 7
BITMAP
C0
C0
ENDCHAR
STARTCHAR 02D9
ENCODING 729
SWIDTH 540 0
DWIDTH 6 0
BBX 1 1 2 7
BITMAP
80
ENDCHAR
STARTCHAR 02DA
ENCODING 730
SWIDTH 540 0
DWIDTH 6 0
BBX 3 3 1 6
BITMAP
E0
A0
E0
ENDCHAR
STARTCHAR 02DB
ENCODING 731
SWIDTH 540 0
DWIDTH 6 0
BBX 2 2 2 -2
BITMAP
80
C0
ENDCHAR
STARTCHAR 02DC
ENCODING 732
SWIDTH 540 0
DWIDTH 6 0
BBX 4 1 1 7
BITMAP
F0
ENDCHAR
STARTCHAR 02DD
ENCODING 733
SWIDTH 540 0
DWIDTH 6 0
BBX 3 1 1 7
BITMAP
A0
ENDCHAR
STARTCHAR 037E
ENCODING 894
SWIDTH 540 0
DWIDTH 6 0
BBX 2 8 2 -2
BITMAP
C0
C0
00
00
C0
C0
40
C0
ENDCHAR
STARTCHAR 0391
ENCODING 913
SWIDTH 540 0
DWIDTH 6 0
BBX 4 8 1 0
BITMAP
60
90
90
F0
90
90
90
90
ENDCHAR
STARTCHAR 0392
ENCODING 914
SWIDTH 540 0
DWIDTH 6 0
BBX 4 8 1 0
BITMAP
E0
90
90
E0
90
90
90
E0
ENDCHAR
STARTCHAR 0393
ENCODING 915
SWIDTH 540 0
DWIDTH 6 0
BBX 4 8 1 0
BITMAP
F0
80
80
80
80
80
80
80
ENDCHAR
STARTCHAR 0394
ENCODING 916
SWIDTH 540 0
DWIDTH 6 0
BBX 4 8 1 0
BITMAP
60
60
60
A0
A0
90
90
F0
ENDCHAR
STARTCHAR 0395
ENCODING 917
SWIDTH 540 0
DWIDTH 6 0
BBX 4 8 1 0
BITMAP
F0
80
80
E0
80
80
80
F0
ENDCHAR
STARTCHAR 0396
ENCODING 918
SWIDTH 540 0
DWIDTH 6 0
BBX 4 8 1 0
BITMAP
F0
10
20
20
40
40
80
F0
ENDCHAR
STARTCHAR 0397
ENCODING 919
SWIDTH 540 0
DWIDTH 6 0
BBX 4 8 1 0
BITMAP
90
90
90
F0
90
90
90
90
ENDCHAR
STARTCHAR 0398
ENCODING 920
SWIDTH 540 0
DWIDTH 6 0
BBX 5 8 0 0
BITMAP
70
88
88
88
A8
88
88
70
ENDCHAR
STARTCHAR 0399
ENCODING 921
SWIDTH 540 0
DWIDTH 6 0
BBX 5 8 0 0
BITMAP
F8
20
20
20
20
20
20
F8
ENDCHAR
STARTCHAR 039A
ENCODING 922
SWIDTH 540 0
DWIDTH 6 0
BBX 4 8 1 0
BITMAP
90
A0
A0
C0
C0
C0
A0
90
ENDCHAR
STARTCHAR 039B
ENCODING 923
SWIDTH 540 0
DWIDTH 6 0
BBX 4 8 1 0
BITMAP
40
60
60
60
A0
90
90
90
ENDCHAR
STARTCHAR 039C
ENCODING 924
SWIDTH 540 0
DWIDTH 6 0
BBX 4 8 1 0
BITMAP
90
90
F0
90
90
90
90
90
ENDCHAR
STARTCHAR 039D
ENCODING 925
SWIDTH 540 0
DWIDTH 6 0
BBX 4 8 1 0
BITMAP
90
D0
D0
D0
B0
B0
B0
90
ENDCHAR
STARTCHAR 039E
ENCODING 926
SWIDTH 540 0
DWIDTH 6 0
BBX 4 8 1 0
BITMAP
F0
00
00
60
00
00
00
F0
ENDCHAR
STARTCHAR 039F
ENCODING 927
SWIDTH 540 0
DWIDTH 6 0
BBX 4 8 1 0
BITMAP
60
90
90
90
90
90
90
60
ENDCHAR
STARTCHAR 03A0
ENCODING 928
SWIDTH 540 0
DWIDTH 6 0
BBX 4 8 1 0
BITMAP
F0
90
90
90
90
90
90
90
ENDCHAR
STARTCHAR 03A1
ENCODING 929
SWIDTH 540 0
DWIDTH 6 0
BBX 4 8 1 0
BITMAP
E0
90
90
E0
80
80
80
80
ENDCHAR
STARTCHAR 03A3
ENCODING 931
SWIDTH 540 0
DWIDTH 6 0
BBX 4 8 1 0
BITMAP
F0
80
40
40
40
40
80
F0
ENDCHAR
STARTCHAR 03A4
ENCODING 932
SWIDTH 540 0
DWIDTH 6 0
BBX 5 8 0 0
BITMAP
F8
20
20
20
20
20
20
20
ENDCHAR
STARTCHAR 03A5
ENCODING 933
SWIDTH 540 0
DWIDTH 6 0
BBX 4 8 1 0
BITMAP
90
90
A0
60
60
40
40
40
ENDCHAR
STARTCHAR 03A6
ENCODING 934
SWIDTH 540 0
DWIDTH 6 0
BBX 7 8 -1 0
BITMAP
10
10
7C
92
92
7C
10
10
ENDCHAR
STARTCHAR 03A7
ENCODING 935
SWIDTH 540 0
DWIDTH 6 0
BBX 4 8 1 0
BITMAP
90
90
60
60
60
60
A0
90
ENDCHAR
STARTCHAR 03A9
ENCODING 937
SWIDTH 540 0
DWIDTH 6 0
BBX 6 8 0 0
BITMAP
30
48
84
84
84
84
48
FC
ENDCHAR
STARTCHAR 03AA
ENCODING 938
SWIDTH 540 0
DWIDTH 6 0
BBX 5 10 0 0
BITMAP
28
00
F8
20
20
20
20
20
20
F8
ENDCHAR
STARTCHAR 03AB
ENCODING 939
SWIDTH 540 0
DWIDTH 6 0
BBX 5 10 0 0
BITMAP
28
00
88
50
50
50
20
20
20
20
ENDCHAR
STARTCHAR 03AC
ENCODING 940
SWIDTH 540 0
DWIDTH 6 0
BBX 5 8 0 0
BITMAP
30
00
68
98
90
90
98
68
ENDCHAR
STARTCHAR 03AD
ENCODING 941
SWIDTH 540 0
DWIDTH 6 0
BBX 4 8 1 0
BITMAP
60
00
70
90
E0
80
90
70
ENDCHAR
STARTCHAR 03AE
ENCODING 942
SWIDTH 540 0
DWIDTH 6 0
BBX 4 10 1 -2
BITMAP
60
00
E0
90
90
90
90
90
10
10
ENDCHAR
STARTCHAR 03B1
ENCODING 945
SWIDTH 540 0
DWIDTH 6 0
BBX 5 6 0 0
BITMAP
68
98
90
90
98
68
ENDCHAR
STARTCHAR 03B2
ENCODING 946
SWIDTH 540 0
DWIDTH 6 0
BBX 4 9 1 -1
BITMAP
60
90
90
B0
90
90
90
E0
80
ENDCHAR
STARTCHAR 03B4
ENCODING 948
SWIDTH 540 0
DWIDTH 6 0
BBX 5 8 0 0
BITMAP
70
20
70
88
88
88
88
70
ENDCHAR
STARTCHAR 03B5
ENCODING 949
SWIDTH 540 0
DWIDTH 6 0
BBX 4 6 1 0
BITMAP
70
90
E0
80
90
70
ENDCHAR
STARTCHAR 03B7
ENCODING 951
SWIDTH 540 0
DWIDTH 6 0
BBX 4 8 1 -2
BITMAP
E0
90
90
90
90
90
10
10
ENDCHAR
STARTCHAR 03BF
ENCODING 959
SWIDTH 540 0
DWIDTH 6 0
BBX 4 6 1 0
BITMAP
60
90
90
90
90
60
ENDCHAR
STARTCHAR 03C0
ENCODING 960
SWIDTH 540 0
DWIDTH 6 0
BBX 5 6 0 0
BITMAP
F8
50
50
50
50
58
ENDCHAR
STARTCHAR 03C3
ENCODING 963
SWIDTH 540 0
DWIDTH 6 0
BBX 5 6 0 0
BITMAP
78
90
90
90
90
60
ENDCHAR
STARTCHAR 03C4
ENCODING 964
SWIDTH 540 0
DWIDTH 6 0
BBX 5 6 0 0
BITMAP
F8
20
20
20
20
10
ENDCHAR
STARTCHAR 03C6
ENCODING 966
SWIDTH 540 0
DWIDTH 6 0
BBX 4 8 1 -2
BITMAP
F0
D0
D0
D0
D0
E0
40
40
ENDCHAR
STARTCHAR 1E02
ENCODING 7682
SWIDTH 540 0
DWIDTH 6 0
BBX 4 10 1 0
BITMAP
20
00
E0
90
90
E0
90
90
90
E0
ENDCHAR
STARTCHAR 1E03
ENCODING 7683
SWIDTH 540 0
DWIDTH 6 0
BBX 4 8 1 0
BITMAP
A0
80
E0
90
90
90
90
E0
ENDCHAR
STARTCHAR 1E08
ENCODING 7688
SWIDTH 540 0
DWIDTH 6 0
BBX 5 12 0 -2
BITMAP
30
00
30
48
40
40
40
40
48
30
20
E0
ENDCHAR
STARTCHAR 1E09
ENCODING 7689
SWIDTH 540 0
DWIDTH 6 0
BBX 5 10 0 -2
BITMAP
30
00
30
48
40
40
48
30
20
E0
ENDCHAR
STARTCHAR 1E0A
ENCODING 7690
SWIDTH 540 0
DWIDTH 6 0
BBX 4 10 1 0
BITMAP
40
00
E0
90
90
90
90
90
90
E0
ENDCHAR
STARTCHAR 1E0B
ENCODING 7691
SWIDTH 540 0
DWIDTH 6 0
BBX 4 8 1 0
BITMAP
30
10
70
90
90
90
90
70
ENDCHAR
STARTCHAR 1E1E
ENCODING 7710
SWIDTH 540 0
DWIDTH 6 0
BBX 4 10 1 0
BITMAP
20
00
F0
80
80
E0
80
80
80
80
ENDCHAR
STARTCHAR 1E1F
ENCODING 7711
SWIDTH 540 0
DWIDTH 6 0
BBX 4 10 1 0
BITMAP
20
00
30
40
40
E0
40
40
40
40
ENDCHAR
STARTCHAR 1E22
ENCODING 7714
SWIDTH 540 0
DWIDTH 6 0
BBX 4 10 1 0
BITMAP
20
00
90
90
90
F0
90
90
90
90
ENDCHAR
STARTCHAR 1E23
ENCODING 7715
SWIDTH 540 0
DWIDTH 6 0
BBX 4 8 1 0
BITMAP
A0
80
E0
90
90
90
90
90
ENDCHAR
STARTCHAR 1E26
ENCODING 7718
SWIDTH 540 0
DWIDTH 6 0
BBX 4 10 1 0
BITMAP
50
00
90
90
90
F0
90
90
90
90
ENDCHAR
STARTCHAR 1E27
ENCODING 7719
SWIDTH 540 0
DWIDTH 6 0
BBX 5 9 1 0
BITMAP
28
80
80
E0
90
90
90
90
90
ENDCHAR
STARTCHAR 1E30
ENCODING 7728
SWIDTH 540 0
DWIDTH 6 0
BBX 4 10 1 0
BITMAP
60
00
90
A0
C0
C0
C0
C0
A0
90
ENDCHAR
STARTCHAR 1E31
ENCODING 7729
SWIDTH 540 0
DWIDTH 6 0
BBX 4 8 1 0
BITMAP
E0
80
90
A0
C0
C0
A0
90
ENDCHAR
STARTCHAR 1E3E
ENCODING 7742
SWIDTH 540 0
DWIDTH 6 0
BBX 4 10 1 0
BITMAP
60
00
90
90
F0
B0
90
90
90
90
ENDCHAR
STARTCHAR 1E3F
ENCODING 7743
SWIDTH 540 0
DWIDTH 6 0
BBX 5 8 1 0
BITMAP
60
00
D8
A8
A8
A8
A8
A8
ENDCHAR
STARTCHAR 1E40
ENCODING 7744
SWIDTH 540 0
DWIDTH 6 0
BBX 4 10 1 0
BITMAP
20
00
90
90
F0
B0
90
90
90
90
ENDCHAR
STARTCHAR 1E41
ENCODING 7745
SWIDTH 540 0
DWIDTH 6 0
BBX 5 8 1 0
BITMAP
20
00
D8
A8
A8
A8
A8
A8
ENDCHAR
STARTCHAR 1E44
ENCODING 7748
SWIDTH 540 0
DWIDTH 6 0
BBX 4 10 1 0
BITMAP
20
00
90
D0
D0
D0
B0
B0
B0
90
ENDCHAR
STARTCHAR 1E45
ENCODING 7749
SWIDTH 540 0
DWIDTH 6 0
BBX 4 8 1 0
BITMAP
20
00
E0
90
90
90
90
90
ENDCHAR
STARTCHAR 1E54
ENCODING 7764
SWIDTH 540 0
DWIDTH 6 0
BBX 4 10 1 0
BITMAP
60
00
E0
90
90
E0
80
80
80
80
ENDCHAR
STARTCHAR 1E55
ENCODING 7765
SWIDTH 540 0
DWIDTH 6 0
BBX 4 11 1 -3
BITMAP
60
00
E0
90
90
90
90
E0
80
80
80
ENDCHAR
STARTCHAR 1E56
ENCODING 7766
SWIDTH 540 0
DWIDTH 6 0
BBX 4 10 1 0
BITMAP
20
00
E0
90
90
E0
80
80
80
80
ENDCHAR
STARTCHAR 1E57
ENCODING 7767
SWIDTH 540 0
DWIDTH 6 0
BBX 4 11 1 -3
BITMAP
20
00
E0
90
90
90
90
E0
80
80
80
ENDCHAR
STARTCHAR 1E60
ENCODING 7776
SWIDTH 540 0
DWIDTH 6 0
BBX 4 8 1 0
BITMAP
70
80
80
60
10
10
10
E0
ENDCHAR
STARTCHAR 1E61
ENCODING 7777
SWIDTH 540 0
DWIDTH 6 0
BBX 4 8 1 0
BITMAP
20
00
70
80
E0
10
10
E0
ENDCHAR
STARTCHAR 1E6A
ENCODING 7786
SWIDTH 540 0
DWIDTH 6 0
BBX 5 10 0 0
BITMAP
10
00
F8
20
20
20
20
20
20
20
ENDCHAR
STARTCHAR 1E6B
ENCODING 7787
SWIDTH 540 0
DWIDTH 6 0
BBX 4 10 1 0
BITMAP
40
00
40
40
E0
40
40
40
40
30
ENDCHAR
STARTCHAR 1E80
ENCODING 7808
SWIDTH 540 0
DWIDTH 6 0
BBX 4 10 1 0
BITMAP
60
00
90
90
90
90
90
F0
F0
90
ENDCHAR
STARTCHAR 1E81
ENCODING 7809
SWIDTH 540 0
DWIDTH 6 0
BBX 5 8 0 0
BITMAP
60
00
88
88
A8
A8
A8
50
ENDCHAR
STARTCHAR 1E82
ENCODING 7810
SWIDTH 540 0
DWIDTH 6 0
BBX 4 10 1 0
BITMAP
60
00
90
90
90
90
90
F0
F0
90
ENDCHAR
STARTCHAR 1E83
ENCODING 7811
SWIDTH 540 0
DWIDTH 6 0
BBX 5 8 0 0
BITMAP
30
00
88
88
A8
A8
A8
50
ENDCHAR
STARTCHAR 1E84
ENCODING 7812
SWIDTH 540 0
DWIDTH 6 0
BBX 4 10 1 0
BITMAP
50
00
90
90
90
90
90
F0
F0
90
ENDCHAR
STARTCHAR 1E85
ENCODING 7813
SWIDTH 540 0
DWIDTH 6 0
BBX 5 8 0 0
BITMAP
28
00
88
88
A8
A8
A8
50
ENDCHAR
STARTCHAR 1E86
ENCODING 7814
SWIDTH 540 0
DWIDTH 6 0
BBX 4 10 1 0
BITMAP
20
00
90
90
90
90
90
F0
F0
90
ENDCHAR
STARTCHAR 1E87
ENCODING 7815
SWIDTH 540 0
DWIDTH 6 0
BBX 5 8 0 0
BITMAP
10
00
88
88
A8
A8
A8
50
ENDCHAR
STARTCHAR 1E8A
ENCODING 7818
SWIDTH 540 0
DWIDTH 6 0
BBX 4 10 1 0
BITMAP
20
00
90
60
60
60
60
60
60
90
ENDCHAR
STARTCHAR 1E8B
ENCODING 7819
SWIDTH 540 0
DWIDTH 6 0
BBX 3 8 1 0
BITMAP
20
00
A0
A0
40
40
A0
A0
ENDCHAR
STARTCHAR 1E8C
ENCODING 7820
SWIDTH 540 0
DWIDTH 6 0
BBX 4 10 1 0
BITMAP
50
00
90
60
60
60
60
60
60
90
ENDCHAR
STARTCHAR 1E8D
ENCODING 7821
SWIDTH 540 0
DWIDTH 6 0
BBX 4 8 1 0
BITMAP
50
00
A0
A0
40
40
A0
A0
ENDCHAR
STARTCHAR 1E8E
ENCODING 7822
SWIDTH 540 0
DWIDTH 6 0
BBX 5 10 0 0
BITMAP
10
00
88
50
50
50
20
20
20
20
ENDCHAR
STARTCHAR 1E8F
ENCODING 7823
SWIDTH 540 0
DWIDTH 6 0
BBX 4 11 1 -3
BITMAP
20
00
90
90
90
90
90
70
10
10
60
ENDCHAR
STARTCHAR 1EBC
ENCODING 7868
SWIDTH 540 0
DWIDTH 6 0
BBX 4 10 1 0
BITMAP
F0
00
F0
80
80
E0
80
80
80
F0
ENDCHAR
STARTCHAR 1EBD
ENCODING 7869
SWIDTH 540 0
DWIDTH 6 0
BBX 4 8 1 0
BITMAP
F0
00
60
90
F0
80
80
70
ENDCHAR
STARTCHAR 1EF2
ENCODING 7922
SWIDTH 540 0
DWIDTH 6 0
BBX 5 10 0 0
BITMAP
30
00
88
50
50
50
20
20
20
20
ENDCHAR
STARTCHAR 1EF3
ENCODING 7923
SWIDTH 540 0
DWIDTH 6 0
BBX 4 11 1 -3
BITMAP
60
00
90
90
90
90
90
70
10
10
60
ENDCHAR
STARTCHAR 1EF8
ENCODING 7928
SWIDTH 540 0
DWIDTH 6 0
BBX 5 10 0 0
BITMAP
78
00
88
50
50
50
20
20
20
20
ENDCHAR
STARTCHAR 1EF9
ENCODING 7929
SWIDTH 540 0
DWIDTH 6 0
BBX 4 11 1 -3
BITMAP
F0
00
90
90
90
90
90
70
10
10
60
ENDCHAR
STARTCHAR 2013
ENCODING 8211
SWIDTH 540 0
DWIDTH 6 0
BBX 4 1 1 3
BITMAP
F0
ENDCHAR
STARTCHAR 2014
ENCODING 8212
SWIDTH 540 0
DWIDTH 6 0
BBX 6 1 0 3
BITMAP
FC
ENDCHAR
STARTCHAR 2015
ENCODING 8213
SWIDTH 540 0
DWIDTH 6 0
BBX 6 1 0 3
BITMAP
FC
ENDCHAR
STARTCHAR 2016
ENCODING 8214
SWIDTH 540 0
DWIDTH 6 0
BBX 3 8 1 0
BITMAP
A0
A0
A0
A0
A0
A0
A0
A0
ENDCHAR
STARTCHAR 2017
ENCODING 8215
SWIDTH 540 0
DWIDTH 6 0
BBX 6 3 0 -3
BITMAP
FC
00
FC
ENDCHAR
STARTCHAR 2018
ENCODING 8216
SWIDTH 540 0
DWIDTH 6 0
BBX 2 4 2 4
BITMAP
C0
80
C0
C0
ENDCHAR
STARTCHAR 2019
ENCODING 8217
SWIDTH 540 0
DWIDTH 6 0
BBX 1 3 2 5
BITMAP
80
80
80
ENDCHAR
STARTCHAR 201A
ENCODING 8218
SWIDTH 540 0
DWIDTH 6 0
BBX 2 4 2 -2
BITMAP
C0
C0
40
C0
ENDCHAR
STARTCHAR 201C
ENCODING 8220
SWIDTH 540 0
DWIDTH 6 0
BBX 5 4 1 4
BITMAP
D8
90
D8
D8
ENDCHAR
STARTCHAR 201D
ENCODING 8221
SWIDTH 540 0
DWIDTH 6 0
BBX 5 4 0 4
BITMAP
D8
D8
48
D8
ENDCHAR
STARTCHAR 201E
ENCODING 8222
SWIDTH 540 0
DWIDTH 6 0
BBX 5 4 0 -2
BITMAP
D8
D8
48
D8
ENDCHAR
STARTCHAR 2020
ENCODING 8224
SWIDTH 540 0
DWIDTH 6 0
BBX 5 6 0 2
BITMAP
20
20
F8
20
20
20
ENDCHAR
STARTCHAR 2021
ENCODING 8225
SWIDTH 540 0
DWIDTH 6 0
BBX 5 8 0 0
BITMAP
20
20
F8
20
20
F8
20
20
ENDCHAR
STARTCHAR 2022
ENCODING 8226
SWIDTH 540 0
DWIDTH 6 0
BBX 3 3 1 2
BITMAP
E0
E0
E0
ENDCHAR
STARTCHAR 2024
ENCODING 8228
SWIDTH 540 0
DWIDTH 6 0
BBX 2 2 2 0
BITMAP
C0
C0
ENDCHAR
STARTCHAR 2026
ENCODING 8230
SWIDTH 540 0
DWIDTH 6 0
BBX 5 2 0 0
BITMAP
A8
A8
ENDCHAR
STARTCHAR 2030
ENCODING 8240
SWIDTH 540 0
DWIDTH 6 0
BBX 6 6 0 1
BITMAP
E8
B0
E0
3C
54
FC
ENDCHAR
STARTCHAR 2039
ENCODING 8249
SWIDTH 540 0
DWIDTH 6 0
BBX 2 4 2 1
BITMAP
40
80
80
40
ENDCHAR
STARTCHAR 203A
ENCODING 8250
SWIDTH 540 0
DWIDTH 6 0
BBX 1 4 2 1
BITMAP
80
80
80
80
ENDCHAR
STARTCHAR 203C
ENCODING 8252
SWIDTH 540 0
DWIDTH 6 0
BBX 3 8 1 0
BITMAP
A0
A0
A0
A0
A0
00
A0
A0
ENDCHAR
STARTCHAR 203E
ENCODING 8254
SWIDTH 540 0
DWIDTH 6 0
BBX 6 1 0 7
BITMAP
FC
ENDCHAR
STARTCHAR 2044
ENCODING 8260
SWIDTH 540 0
DWIDTH 6 0
BBX 4 8 1 0
BITMAP
10
20
20
20
40
40
40
80
ENDCHAR
STARTCHAR 2070
ENCODING 8304
SWIDTH 540 0
DWIDTH 6 0
BBX 2 4 1 4
BITMAP
C0
C0
C0
40
ENDCHAR
STARTCHAR 2074
ENCODING 8308
SWIDTH 540 0
DWIDTH 6 0
BBX 2 3 1 5
BITMAP
40
C0
C0
ENDCHAR
STARTCHAR 2075
ENCODING 8309
SWIDTH 540 0
DWIDTH 6 0
BBX 2 4 1 4
BITMAP
80
C0
40
C0
ENDCHAR
STARTCHAR 2076
ENCODING 8310
SWIDTH 540 0
DWIDTH 6 0
BBX 2 3 1 4
BITMAP
C0
C0
C0
ENDCHAR
STARTCHAR 2077
ENCODING 8311
SWIDTH 540 0
DWIDTH 6 0
BBX 1 4 2 4
BITMAP
80
80
80
80
ENDCHAR
STARTCHAR 2078
ENCODING 8312
SWIDTH 540 0
DWIDTH 6 0
BBX 2 4 1 4
BITMAP
C0
C0
C0
C0
ENDCHAR
STARTCHAR 2079
ENCODING 8313
SWIDTH 540 0
DWIDTH 6 0
BBX 2 4 1 4
BITMAP
C0
C0
40
80
ENDCHAR
STARTCHAR 207A
ENCODING 8314
SWIDTH 540 0
DWIDTH 6 0
BBX 3 3 1 5
BITMAP
40
E0
40
ENDCHAR
STARTCHAR 207B
ENCODING 8315
SWIDTH 540 0
DWIDTH 6 0
BBX 2 1 1 6
BITMAP
C0
ENDCHAR
STARTCHAR 207C
ENCODING 8316
SWIDTH 540 0
DWIDTH 6 0
BBX 2 3 1 5
BITMAP
C0
00
C0
ENDCHAR
STARTCHAR 207D
ENCODING 8317
SWIDTH 540 0
DWIDTH 6 0
BBX 2 5 2 4
BITMAP
40
80
80
80
40
ENDCHAR
STARTCHAR 207E
ENCODING 8318
SWIDTH 540 0
DWIDTH 6 0
BBX 2 5 2 4
BITMAP
80
40
40
40
80
ENDCHAR
STARTCHAR 207F
ENCODING 8319
SWIDTH 540 0
DWIDTH 6 0
BBX 3 4 1 4
BITMAP
E0
A0
A0
A0
ENDCHAR
STARTCHAR 2080
ENCODING 8320
SWIDTH 540 0
DWIDTH 6 0
BBX 2 4 1 -1
BITMAP
C0
C0
C0
40
ENDCHAR
STARTCHAR 2081
ENCODING 8321
SWIDTH 540 0
DWIDTH 6 0
BBX 3 4 1 -1
BITMAP
C0
40
40
E0
ENDCHAR
STARTCHAR 2082
ENCODING 8322
SWIDTH 540 0
DWIDTH 6 0
BBX 2 4 1 -1
BITMAP
40
40
80
C0
ENDCHAR
STARTCHAR 2083
ENCODING 8323
SWIDTH 540 0
DWIDTH 6 0
BBX 2 4 1 -1
BITMAP
40
40
40
C0
ENDCHAR
STARTCHAR 2084
ENCODING 8324
SWIDTH 540 0
DWIDTH 6 0
BBX 2 3 1 0
BITMAP
40
C0
C0
ENDCHAR
STARTCHAR 2085
ENCODING 8325
SWIDTH 540 0
DWIDTH 6 0
BBX 2 4 1 -1
BITMAP
80
C0
40
C0
ENDCHAR
STARTCHAR 2086
ENCODING 8326
SWIDTH 540 0
DWIDTH 6 0
BBX 2 3 1 -1
BITMAP
C0
C0
C0
ENDCHAR
STARTCHAR 2087
ENCODING 8327
SWIDTH 540 0
DWIDTH 6 0
BBX 1 4 2 -1
BITMAP
80
80
80
80
ENDCHAR
STARTCHAR 2088
ENCODING 8328
SWIDTH 540 0
DWIDTH 6 0
BBX 2 4 1 -1
BITMAP
C0
C0
C0
C0
ENDCHAR
STARTCHAR 2089
ENCODING 8329
SWIDTH 540 0
DWIDTH 6 0
BBX 2 4 1 -1
BITMAP
C0
C0
40
80
ENDCHAR
STARTCHAR 208A
ENCODING 8330
SWIDTH 540 0
DWIDTH 6 0
BBX 2 3 1 0
BITMAP
40
C0
40
ENDCHAR
STARTCHAR 208B
ENCODING 8331
SWIDTH 540 0
DWIDTH 6 0
BBX 2 1 1 1
BITMAP
C0
ENDCHAR
STARTCHAR 208C
ENCODING 8332
SWIDTH 540 0
DWIDTH 6 0
BBX 2 3 1 0
BITMAP
C0
00
C0
ENDCHAR
STARTCHAR 208D
ENCODING 8333
SWIDTH 540 0
DWIDTH 6 0
BBX 2 5 2 -1
BITMAP
40
80
80
80
40
ENDCHAR
STARTCHAR 208E
ENCODING 8334
SWIDTH 540 0
DWIDTH 6 0
BBX 2 5 2 -1
BITMAP
80
40
40
40
80
ENDCHAR
STARTCHAR 20A3
ENCODING 8355
SWIDTH 540 0
DWIDTH 6 0
BBX 5 8 0 0
BITMAP
78
40
40
70
40
40
E0
40
ENDCHAR
STARTCHAR 20A4
ENCODING 8356
SWIDTH 540 0
DWIDTH 6 0
BBX 4 8 1 0
BITMAP
60
50
E0
40
E0
40
40
F0
ENDCHAR
STARTCHAR 20A7
ENCODING 8359
SWIDTH 540 0
DWIDTH 6 0
BBX 6 8 0 0
BITMAP
F0
B0
B8
FC
90
9C
94
9C
ENDCHAR
STARTCHAR 20AC
ENCODING 8364
SWIDTH 540 0
DWIDTH 6 0
BBX 6 8 0 0
BITMAP
38
44
E0
40
E0
40
44
38
ENDCHAR
STARTCHAR 2105
ENCODING 8453
SWIDTH 540 0
DWIDTH 6 0
BBX 6 8 0 0
BITMAP
48
B0
B0
50
28
34
54
48
ENDCHAR
STARTCHAR 2106
ENCODING 8454
SWIDTH 540 0
DWIDTH 6 0
BBX 6 8 0 0
BITMAP
48
B0
B0
60
34
54
54
48
ENDCHAR
STARTCHAR 2122
ENCODING 8482
SWIDTH 540 0
DWIDTH 6 0
BBX 5 4 0 4
BITMAP
F8
78
78
68
ENDCHAR
STARTCHAR 2126
ENCODING 8486
SWIDTH 540 0
DWIDTH 6 0
BBX 6 8 0 0
BITMAP
38
48
84
84
84
84
88
DC
ENDCHAR
STARTCHAR 212E
ENCODING 8494
SWIDTH 540 0
DWIDTH 6 0
BBX 4 6 1 0
BITMAP
60
90
F0
80
90
60
ENDCHAR
STARTCHAR 2141
ENCODING 8513
SWIDTH 540 0
DWIDTH 6 0
BBX 4 8 1 0
BITMAP
E0
90
90
90
D0
10
90
60
ENDCHAR
STARTCHAR 2153
ENCODING 8531
SWIDTH 540 0
DWIDTH 6 0
BBX 6 8 0 0
BITMAP
C8
50
50
F0
3C
2C
24
5C
ENDCHAR
STARTCHAR 2154
ENCODING 8532
SWIDTH 540 0
DWIDTH 6 0
BBX 6 8 0 0
BITMAP
68
50
90
F0
28
2C
28
48
ENDCHAR
STARTCHAR 2155
ENCODING 8533
SWIDTH 540 0
DWIDTH 6 0
BBX 6 8 0 0
BITMAP
C8
50
50
F0
3C
38
44
5C
ENDCHAR
STARTCHAR 2156
ENCODING 8534
SWIDTH 540 0
DWIDTH 6 0
BBX 6 8 0 0
BITMAP
C8
50
90
D0
28
2C
24
4C
ENDCHAR
STARTCHAR 2157
ENCODING 8535
SWIDTH 540 0
DWIDTH 6 0
BBX 6 8 0 0
BITMAP
C8
D0
50
D0
28
2C
24
4C
ENDCHAR
STARTCHAR 2158
ENCODING 8536
SWIDTH 540 0
DWIDTH 6 0
BBX 6 8 0 0
BITMAP
48
D0
D0
10
28
2C
24
4C
ENDCHAR
STARTCHAR 2159
ENCODING 8537
SWIDTH 540 0
DWIDTH 6 0
BBX 6 8 0 0
BITMAP
C8
50
50
F0
28
28
54
4C
ENDCHAR
STARTCHAR 215A
ENCODING 8538
SWIDTH 540 0
DWIDTH 6 0
BBX 6 8 0 0
BITMAP
88
D0
50
D0
20
2C
2C
4C
ENDCHAR
STARTCHAR 215B
ENCODING 8539
SWIDTH 540 0
DWIDTH 6 0
BBX 6 8 0 0
BITMAP
C8
50
50
F0
2C
3C
34
4C
ENDCHAR
STARTCHAR 215C
ENCODING 8540
SWIDTH 540 0
DWIDTH 6 0
BBX 6 8 0 0
BITMAP
C8
D0
50
D0
2C
3C
34
4C
ENDCHAR
STARTCHAR 215D
ENCODING 8541
SWIDTH 540 0
DWIDTH 6 0
BBX 6 9 0 0
BITMAP
E0
88
D0
30
D0
2C
3C
34
4C
ENDCHAR
STARTCHAR 215E
ENCODING 8542
SWIDTH 540 0
DWIDTH 6 0
BBX 5 8 1 0
BITMAP
D0
A0
A0
A0
58
78
68
98
ENDCHAR
STARTCHAR 215F
ENCODING 8543
SWIDTH 540 0
DWIDTH 6 0
BBX 5 8 0 0
BITMAP
C8
50
50
F0
20
20
40
40
ENDCHAR
STARTCHAR 2190
ENCODING 8592
SWIDTH 540 0
DWIDTH 6 0
BBX 6 5 0 2
BITMAP
20
60
FC
60
20
ENDCHAR
STARTCHAR 2191
ENCODING 8593
SWIDTH 540 0
DWIDTH 6 0
BBX 5 6 0 2
BITMAP
20
70
F8
20
20
20
ENDCHAR
STARTCHAR 2192
ENCODING 8594
SWIDTH 540 0
DWIDTH 6 0
BBX 6 5 0 2
BITMAP
10
18
FC
18
10
ENDCHAR
STARTCHAR 2193
ENCODING 8595
SWIDTH 540 0
DWIDTH 6 0
BBX 5 6 0 0
BITMAP
20
20
20
F8
70
20
ENDCHAR
STARTCHAR 2194
ENCODING 8596
SWIDTH 540 0
DWIDTH 6 0
BBX 6 5 0 2
BITMAP
50
58
FC
58
50
ENDCHAR
STARTCHAR 2195
ENCODING 8597
SWIDTH 540 0
DWIDTH 6 0
BBX 5 8 0 0
BITMAP
20
70
F8
20
20
F8
70
20
ENDCHAR
STARTCHAR 21A4
ENCODING 8612
SWIDTH 540 0
DWIDTH 6 0
BBX 6 5 0 1
BITMAP
24
64
FC
64
24
ENDCHAR
STARTCHAR 21A5
ENCODING 8613
SWIDTH 540 0
DWIDTH 6 0
BBX 5 8 0 0
BITMAP
20
70
F8
20
20
20
20
F8
ENDCHAR
STARTCHAR 21A6
ENCODING 8614
SWIDTH 540 0
DWIDTH 6 0
BBX 6 5 0 2
BITMAP
90
98
FC
98
90
ENDCHAR
STARTCHAR 21A7
ENCODING 8615
SWIDTH 540 0
DWIDTH 6 0
BBX 5 8 0 0
BITMAP
F8
20
20
20
20
F8
70
20
ENDCHAR
STARTCHAR 21A8
ENCODING 8616
SWIDTH 540 0
DWIDTH 6 0
BBX 5 9 0 -1
BITMAP
20
70
F8
20
20
F8
70
20
78
ENDCHAR
STARTCHAR 21B0
ENCODING 8624
SWIDTH 540 0
DWIDTH 6 0
BBX 5 7 0 0
BITMAP
20
60
F8
68
28
08
08
ENDCHAR
STARTCHAR 21B1
ENCODING 8625
SWIDTH 540 0
DWIDTH 6 0
BBX 5 7 1 0
BITMAP
20
30
F8
B0
A0
80
80
ENDCHAR
STARTCHAR 21B2
ENCODING 8626
SWIDTH 540 0
DWIDTH 6 0
BBX 5 6 0 2
BITMAP
08
28
68
F8
60
20
ENDCHAR
STARTCHAR 21B3
ENCODING 8627
SWIDTH 540 0
DWIDTH 6 0
BBX 5 6 1 2
BITMAP
80
A0
B0
F8
30
20
ENDCHAR
STARTCHAR 21B4
ENCODING 8628
SWIDTH 540 0
DWIDTH 6 0
BBX 5 6 0 0
BITMAP
E0
20
20
F8
70
20
ENDCHAR
STARTCHAR 21BE
ENCODING 8638
SWIDTH 540 0
DWIDTH 6 0
BBX 3 6 2 2
BITMAP
80
C0
E0
80
80
80
ENDCHAR
STARTCHAR 21BF
ENCODING 8639
SWIDTH 540 0
DWIDTH 6 0
BBX 3 6 0 2
BITMAP
20
60
E0
20
20
20
ENDCHAR
STARTCHAR 21C2
ENCODING 8642
SWIDTH 540 0
DWIDTH 6 0
BBX 3 6 2 0
BITMAP
80
80
80
E0
C0
80
ENDCHAR
STARTCHAR 21C3
ENCODING 8643
SWIDTH 540 0
DWIDTH 6 0
BBX 3 6 0 0
BITMAP
20
20
20
E0
60
20
ENDCHAR
STARTCHAR 21C5
ENCODING 8645
SWIDTH 540 0
DWIDTH 6 0
BBX 7 9 -1 -1
BITMAP
20
F0
20
28
28
08
3E
1C
08
ENDCHAR
STARTCHAR 21C8
ENCODING 8648
SWIDTH 540 0
DWIDTH 6 0
BBX 7 8 -1 0
BITMAP
28
7C
FE
28
28
28
28
28
ENDCHAR
STARTCHAR 2202
ENCODING 8706
SWIDTH 540 0
DWIDTH 6 0
BBX 5 8 1 0
BITMAP
10
08
08
78
90
90
90
E0
ENDCHAR
STARTCHAR 2206
ENCODING 8710
SWIDTH 540 0
DWIDTH 6 0
BBX 4 8 1 0
BITMAP
60
60
60
A0
A0
90
90
F0
ENDCHAR
STARTCHAR 2207
ENCODING 8711
SWIDTH 540 0
DWIDTH 6 0
BBX 4 8 1 0
BITMAP
F0
90
90
90
60
60
60
60
ENDCHAR
STARTCHAR 220F
ENCODING 8719
SWIDTH 540 0
DWIDTH 6 0
BBX 4 11 1 -3
BITMAP
F0
90
90
90
90
90
90
90
90
90
90
ENDCHAR
STARTCHAR 2211
ENCODING 8721
SWIDTH 540 0
DWIDTH 6 0
BBX 4 8 1 0
BITMAP
F0
90
40
20
20
40
50
F0
ENDCHAR
STARTCHAR 2212
ENCODING 8722
SWIDTH 540 0
DWIDTH 6 0
BBX 4 1 1 4
BITMAP
F0
ENDCHAR
STARTCHAR 2215
ENCODING 8725
SWIDTH 540 0
DWIDTH 6 0
BBX 4 8 1 0
BITMAP
10
20
20
20
40
40
40
80
ENDCHAR
STARTCHAR 2219
ENCODING 8729
SWIDTH 540 0
DWIDTH 6 0
BBX 2 2 2 4
BITMAP
C0
C0
ENDCHAR
STARTCHAR 221A
ENCODING 8730
SWIDTH 540 0
DWIDTH 6 0
BBX 6 7 0 0
BITMAP
04
08
08
18
D0
70
20
ENDCHAR
STARTCHAR 221E
ENCODING 8734
SWIDTH 540 0
DWIDTH 6 0
BBX 6 4 0 2
BITMAP
78
A4
A4
78
ENDCHAR
STARTCHAR 2229
ENCODING 8745
SWIDTH 540 0
DWIDTH 6 0
BBX 4 6 1 0
BITMAP
60
90
90
90
90
90
ENDCHAR
STARTCHAR 222A
ENCODING 8746
SWIDTH 540 0
DWIDTH 6 0
BBX 4 6 1 0
BITMAP
90
90
90
90
90
60
ENDCHAR
STARTCHAR 222B
ENCODING 8747
SWIDTH 540 0
DWIDTH 6 0
BBX 4 9 1 -1
BITMAP
70
40
40
40
40
40
40
C0
C0
ENDCHAR
STARTCHAR 2234
ENCODING 8756
SWIDTH 540 0
DWIDTH 6 0
BBX 4 4 1 2
BITMAP
40
00
00
90
ENDCHAR
STARTCHAR 2235
ENCODING 8757
SWIDTH 540 0
DWIDTH 6 0
BBX 4 4 1 2
BITMAP
90
00
00
40
ENDCHAR
STARTCHAR 2236
ENCODING 8758
SWIDTH 540 0
DWIDTH 6 0
BBX 1 4 2 2
BITMAP
80
00
00
80
ENDCHAR
STARTCHAR 2237
ENCODING 8759
SWIDTH 540 0
DWIDTH 6 0
BBX 4 4 1 2
BITMAP
90
00
00
90
ENDCHAR
STARTCHAR 2248
ENCODING 8776
SWIDTH 540 0
DWIDTH 6 0
BBX 5 3 0 2
BITMAP
F8
00
F8
ENDCHAR
STARTCHAR 2260
ENCODING 8800
SWIDTH 540 0
DWIDTH 6 0
BBX 5 8 0 0
BITMAP
08
10
F8
10
F8
20
40
40
ENDCHAR
STARTCHAR 2261
ENCODING 8801
SWIDTH 540 0
DWIDTH 6 0
BBX 5 5 0 2
BITMAP
F8
00
F8
00
F8
ENDCHAR
STARTCHAR 2264
ENCODING 8804
SWIDTH 540 0
DWIDTH 6 0
BBX 4 7 1 0
BITMAP
20
40
80
80
40
20
F0
ENDCHAR
STARTCHAR 2265
ENCODING 8805
SWIDTH 540 0
DWIDTH 6 0
BBX 4 7 1 0
BITMAP
40
20
10
10
20
40
F0
ENDCHAR
STARTCHAR 2302
ENCODING 8962
SWIDTH 540 0
DWIDTH 6 0
BBX 4 4 1 1
BITMAP
60
F0
90
F0
ENDCHAR
STARTCHAR 2310
ENCODING 8976
SWIDTH 540 0
DWIDTH 6 0
BBX 4 2 1 3
BITMAP
F0
80
ENDCHAR
STARTCHAR 2318
ENCODING 8984
SWIDTH 540 0
DWIDTH 6 0
BBX 7 7 0 1
BITMAP
EE
AA
FE
28
FE
AA
EE
ENDCHAR
STARTCHAR 2320
ENCODING 8992
SWIDTH 540 0
DWIDTH 6 0
BBX 3 12 2 -3
BITMAP
E0
E0
80
80
80
80
80
80
80
80
80
80
ENDCHAR
STARTCHAR 2321
ENCODING 8993
SWIDTH 540 0
DWIDTH 6 0
BBX 3 14 0 -3
BITMAP
20
20
20
20
20
20
20
20
20
20
20
20
E0
E0
ENDCHAR
STARTCHAR 2500
ENCODING 9472
SWIDTH 540 0
DWIDTH 6 0
BBX 6 1 0 4
BITMAP
FC
ENDCHAR
STARTCHAR 2502
ENCODING 9474
SWIDTH 540 0
DWIDTH 6 0
BBX 1 14 2 -3
BITMAP
80
80
80
80
80
80
80
80
80
80
80
80
80
80
ENDCHAR
STARTCHAR 250C
ENCODING 9484
SWIDTH 540 0
DWIDTH 6 0
BBX 4 8 2 -3
BITMAP
F0
80
80
80
80
80
80
80
ENDCHAR
STARTCHAR 2510
ENCODING 9488
SWIDTH 540 0
DWIDTH 6 0
BBX 3 8 0 -3
BITMAP
E0
20
20
20
20
20
20
20
ENDCHAR
STARTCHAR 2514
ENCODING 9492
SWIDTH 540 0
DWIDTH 6 0
BBX 4 7 2 4
BITMAP
80
80
80
80
80
80
F0
ENDCHAR
STARTCHAR 2518
ENCODING 9496
SWIDTH 540 0
DWIDTH 6 0
BBX 3 7 0 4
BITMAP
20
20
20
20
20
20
E0
ENDCHAR
STARTCHAR 251C
ENCODING 9500
SWIDTH 540 0
DWIDTH 6 0
BBX 4 14 2 -3
BITMAP
80
80
80
80
80
80
F0
80
80
80
80
80
80
80
ENDCHAR
STARTCHAR 2524
ENCODING 9508
SWIDTH 540 0
DWIDTH 6 0
BBX 3 14 0 -3
BITMAP
20
20
20
20
20
20
E0
20
20
20
20
20
20
20
ENDCHAR
STARTCHAR 252C
ENCODING 9516
SWIDTH 540 0
DWIDTH 6 0
BBX 6 8 0 -3
BITMAP
FC
20
20
20
20
20
20
20
ENDCHAR
STARTCHAR 2534
ENCODING 9524
SWIDTH 540 0
DWIDTH 6 0
BBX 6 7 0 4
BITMAP
20
20
20
20
20
20
FC
ENDCHAR
STARTCHAR 253C
ENCODING 9532
SWIDTH 540 0
DWIDTH 6 0
BBX 6 14 0 -3
BITMAP
20
20
20
20
20
20
FC
20
20
20
20
20
20
20
ENDCHAR
STARTCHAR 2550
ENCODING 9552
SWIDTH 540 0
DWIDTH 6 0
BBX 6 3 0 3
BITMAP
FC
00
FC
ENDCHAR
STARTCHAR 2551
ENCODING 9553
SWIDTH 540 0
DWIDTH 6 0
BBX 3 14 1 -3
BITMAP
A0
A0
A0
A0
A0
A0
A0
A0
A0
A0
A0
A0
A0
A0
ENDCHAR
STARTCHAR 2552
ENCODING 9554
SWIDTH 540 0
DWIDTH 6 0
BBX 4 9 2 -3
BITMAP
F0
80
F0
80
80
80
80
80
80
ENDCHAR
STARTCHAR 2553
ENCODING 9555
SWIDTH 540 0
DWIDTH 6 0
BBX 5 8 1 -3
BITMAP
F8
A0
A0
A0
A0
A0
A0
A0
ENDCHAR
STARTCHAR 2554
ENCODING 9556
SWIDTH 540 0
DWIDTH 6 0
BBX 5 9 1 -3
BITMAP
F8
80
B8
A0
A0
A0
A0
A0
A0
ENDCHAR
STARTCHAR 2555
ENCODING 9557
SWIDTH 540 0
DWIDTH 6 0
BBX 3 9 0 -3
BITMAP
E0
20
E0
20
20
20
20
20
20
ENDCHAR
STARTCHAR 2556
ENCODING 9558
SWIDTH 540 0
DWIDTH 6 0
BBX 4 8 0 -3
BITMAP
F0
50
50
50
50
50
50
50
ENDCHAR
STARTCHAR 2557
ENCODING 9559
SWIDTH 540 0
DWIDTH 6 0
BBX 4 9 0 -3
BITMAP
F0
10
D0
50
50
50
50
50
50
ENDCHAR
STARTCHAR 2558
ENCODING 9560
SWIDTH 540 0
DWIDTH 6 0
BBX 4 8 2 3
BITMAP
80
80
80
80
80
F0
80
F0
ENDCHAR
STARTCHAR 2559
ENCODING 9561
SWIDTH 540 0
DWIDTH 6 0
BBX 5 7 1 4
BITMAP
A0
A0
A0
A0
A0
A0
F8
ENDCHAR
STARTCHAR 255A
ENCODING 9562
SWIDTH 540 0
DWIDTH 6 0
BBX 5 8 1 3
BITMAP
A0
A0
A0
A0
A0
B8
80
F8
ENDCHAR
STARTCHAR 255B
ENCODING 9563
SWIDTH 540 0
DWIDTH 6 0
BBX 3 8 0 3
BITMAP
20
20
20
20
20
E0
20
E0
ENDCHAR
STARTCHAR 255C
ENCODING 9564
SWIDTH 540 0
DWIDTH 6 0
BBX 4 7 0 4
BITMAP
50
50
50
50
50
50
F0
ENDCHAR
STARTCHAR 255D
ENCODING 9565
SWIDTH 540 0
DWIDTH 6 0
BBX 4 8 0 3
BITMAP
50
50
50
50
50
D0
10
F0
ENDCHAR
STARTCHAR 255E
ENCODING 9566
SWIDTH 540 0
DWIDTH 6 0
BBX 4 14 2 -3
BITMAP
80
80
80
80
80
F0
80
F0
80
80
80
80
80
80
ENDCHAR
STARTCHAR 255F
ENCODING 9567
SWIDTH 540 0
DWIDTH 6 0
BBX 5 14 1 -3
BITMAP
A0
A0
A0
A0
A0
A0
B8
A0
A0
A0
A0
A0
A0
A0
ENDCHAR
STARTCHAR 2560
ENCODING 9568
SWIDTH 540 0
DWIDTH 6 0
BBX 5 14 1 -3
BITMAP
A0
A0
A0
A0
A0
B8
80
B8
A0
A0
A0
A0
A0
A0
ENDCHAR
STARTCHAR 2561
ENCODING 9569
SWIDTH 540 0
DWIDTH 6 0
BBX 3 14 0 -3
BITMAP
20
20
20
20
20
E0
20
E0
20
20
20
20
20
20
ENDCHAR
STARTCHAR 2562
ENCODING 9570
SWIDTH 540 0
DWIDTH 6 0
BBX 4 14 0 -3
BITMAP
50
50
50
50
50
50
D0
50
50
50
50
50
50
50
ENDCHAR
STARTCHAR 2563
ENCODING 9571
SWIDTH 540 0
DWIDTH 6 0
BBX 4 14 0 -3
BITMAP
50
50
50
50
50
D0
10
D0
50
50
50
50
50
50
ENDCHAR
STARTCHAR 2564
ENCODING 9572
SWIDTH 540 0
DWIDTH 6 0
BBX 6 9 0 -3
BITMAP
FC
00
FC
20
20
20
20
20
20
ENDCHAR
STARTCHAR 2565
ENCODING 9573
SWIDTH 540 0
DWIDTH 6 0
BBX 6 8 0 -3
BITMAP
FC
50
50
50
50
50
50
50
ENDCHAR
STARTCHAR 2566
ENCODING 9574
SWIDTH 540 0
DWIDTH 6 0
BBX 6 9 0 -3
BITMAP
FC
00
DC
50
50
50
50
50
50
ENDCHAR
STARTCHAR 2567
ENCODING 9575
SWIDTH 540 0
DWIDTH 6 0
BBX 6 8 0 3
BITMAP
20
20
20
20
20
FC
00
FC
ENDCHAR
STARTCHAR 2568
ENCODING 9576
SWIDTH 540 0
DWIDTH 6 0
BBX 6 7 0 4
BITMAP
50
50
50
50
50
50
FC
ENDCHAR
STARTCHAR 2569
ENCODING 9577
SWIDTH 540 0
DWIDTH 6 0
BBX 6 8 0 3
BITMAP
50
50
50
50
50
DC
00
FC
ENDCHAR
STARTCHAR 256A
ENCODING 9578
SWIDTH 540 0
DWIDTH 6 0
BBX 6 14 0 -3
BITMAP
20
20
20
20
20
FC
20
FC
20
20
20
20
20
20
ENDCHAR
STARTCHAR 256B
ENCODING 9579
SWIDTH 540 0
DWIDTH 6 0
BBX 6 14 0 -3
BITMAP
28
28
28
28
28
28
FC
28
28
28
28
28
28
28
ENDCHAR
STARTCHAR 256C
ENCODING 9580
SWIDTH 540 0
DWIDTH 6 0
BBX 6 14 0 -3
BITMAP
50
50
50
50
50
DC
00
DC
50
50
50
50
50
50
ENDCHAR
STARTCHAR 2580
ENCODING 9600
SWIDTH 540 0
DWIDTH 6 0
BBX 6 7 0 4
BITMAP
FC
FC
FC
FC
FC
FC
FC
ENDCHAR
STARTCHAR 2584
ENCODING 9604
SWIDTH 540 0
DWIDTH 6 0
BBX 6 7 0 -3
BITMAP
FC
FC
FC
FC
FC
FC
FC
ENDCHAR
STARTCHAR 2588
ENCODING 9608
SWIDTH 540 0
DWIDTH 6 0
BBX 6 14 0 -3
BITMAP
FC
FC
FC
FC
FC
FC
FC
FC
FC
FC
FC
FC
FC
FC
ENDCHAR
STARTCHAR 258C
ENCODING 9612
SWIDTH 540 0
DWIDTH 6 0
BBX 3 14 0 -3
BITMAP
E0
E0
E0
E0
E0
E0
E0
E0
E0
E0
E0
E0
E0
E0
ENDCHAR
STARTCHAR 2590
ENCODING 9616
SWIDTH 540 0
DWIDTH 6 0
BBX 3 14 3 -3
BITMAP
E0
E0
E0
E0
E0
E0
E0
E0
E0
E0
E0
E0
E0
E0
ENDCHAR
STARTCHAR 2591
ENCODING 9617
SWIDTH 540 0
DWIDTH 6 0
BBX 5 11 0 -2
BITMAP
48
B0
00
48
00
B0
48
00
B0
00
48
ENDCHAR
STARTCHAR 2592
ENCODING 9618
SWIDTH 540 0
DWIDTH 6 0
BBX 6 14 0 -4
BITMAP
48
B4
FC
68
B4
68
B4
FC
68
B4
68
B4
68
10
ENDCHAR
STARTCHAR 2593
ENCODING 9619
SWIDTH 540 0
DWIDTH 6 0
BBX 6 13 0 -3
BITMAP
FC
B4
6C
FC
B4
FC
6C
B4
FC
6C
FC
B4
FC
ENDCHAR
STARTCHAR 25A0
ENCODING 9632
SWIDTH 540 0
DWIDTH 6 0
BBX 4 4 1 2
BITMAP
F0
F0
F0
F0
ENDCHAR
STARTCHAR 25B2
ENCODING 9650
SWIDTH 540 0
DWIDTH 6 0
BBX 4 3 1 2
BITMAP
60
60
F0
ENDCHAR
STARTCHAR 25BA
ENCODING 9658
SWIDTH 540 0
DWIDTH 6 0
BBX 3 4 1 2
BITMAP
80
E0
E0
80
ENDCHAR
STARTCHAR 25BC
ENCODING 9660
SWIDTH 540 0
DWIDTH 6 0
BBX 4 3 1 3
BITMAP
F0
60
60
ENDCHAR
STARTCHAR 25C4
ENCODING 9668
SWIDTH 540 0
DWIDTH 6 0
BBX 4 4 1 2
BITMAP
10
70
F0
30
ENDCHAR
STARTCHAR 25CA
ENCODING 9674
SWIDTH 540 0
DWIDTH 6 0
BBX 4 6 1 1
BITMAP
60
60
90
90
A0
60
ENDCHAR
STARTCHAR 25CB
ENCODING 9675
SWIDTH 540 0
DWIDTH 6 0
BBX 3 3 1 2
BITMAP
E0
E0
E0
ENDCHAR
STARTCHAR 25CF
ENCODING 9679
SWIDTH 540 0
DWIDTH 6 0
BBX 3 3 1 2
BITMAP
E0
E0
E0
ENDCHAR
STARTCHAR 25D8
ENCODING 9688
SWIDTH 540 0
DWIDTH 6 0
BBX 4 4 1 2
BITMAP
F0
90
90
F0
ENDCHAR
STARTCHAR 25D9
ENCODING 9689
SWIDTH 540 0
DWIDTH 6 0
BBX 4 4 1 2
BITMAP
F0
90
D0
F0
ENDCHAR
STARTCHAR 2639
ENCODING 9785
SWIDTH 540 0
DWIDTH 6 0
BBX 6 6 0 1
BITMAP
78
CC
B4
B4
CC
78
ENDCHAR
STARTCHAR 263A
ENCODING 9786
SWIDTH 540 0
DWIDTH 6 0
BBX 6 6 0 1
BITMAP
78
CC
B4
84
CC
78
ENDCHAR
STARTCHAR 263B
ENCODING 9787
SWIDTH 540 0
DWIDTH 6 0
BBX 6 6 0 1
BITMAP
78
FC
CC
FC
CC
78
ENDCHAR
STARTCHAR 263C
ENCODING 9788
SWIDTH 540 0
DWIDTH 6 0
BBX 6 6 0 1
BITMAP
20
78
48
CC
78
20
ENDCHAR
STARTCHAR 2640
ENCODING 9792
SWIDTH 540 0
DWIDTH 6 0
BBX 4 7 1 1
BITMAP
60
90
90
E0
40
60
40
ENDCHAR
STARTCHAR 2642
ENCODING 9794
SWIDTH 540 0
DWIDTH 6 0
BBX 6 6 0 0
BITMAP
1C
0C
74
90
90
60
ENDCHAR
STARTCHAR 2660
ENCODING 9824
SWIDTH 540 0
DWIDTH 6 0
BBX 5 6 0 0
BITMAP
20
70
70
F8
20
70
ENDCHAR
STARTCHAR 2663
ENCODING 9827
SWIDTH 540 0
DWIDTH 6 0
BBX 5 6 0 0
BITMAP
70
70
F8
F8
70
70
ENDCHAR
STARTCHAR 2665
ENCODING 9829
SWIDTH 540 0
DWIDTH 6 0
BBX 4 5 0 1
BITMAP
F0
F0
F0
60
60
ENDCHAR
STARTCHAR 2666
ENCODING 9830
SWIDTH 540 0
DWIDTH 6 0
BBX 4 4 1 1
BITMAP
60
F0
F0
60
ENDCHAR
STARTCHAR 2669
ENCODING 9833
SWIDTH 540 0
DWIDTH 6 0
BBX 2 8 1 0
BITMAP
40
40
40
40
40
40
C0
C0
ENDCHAR
STARTCHAR 266A
ENCODING 9834
SWIDTH 540 0
DWIDTH 6 0
BBX 3 8 1 0
BITMAP
40
60
40
40
40
40
C0
C0
ENDCHAR
STARTCHAR 266B
ENCODING 9835
SWIDTH 540 0
DWIDTH 6 0
BBX 6 9 0 -1
BITMAP
0C
34
64
44
4C
4C
40
C0
C0
ENDCHAR
STARTCHAR 2680
ENCODING 9856
SWIDTH 540 0
DWIDTH 6 0
BBX 6 6 0 0
BITMAP
78
FC
FC
DC
FC
78
ENDCHAR
STARTCHAR 2681
ENCODING 9857
SWIDTH 540 0
DWIDTH 6 0
BBX 6 6 0 0
BITMAP
78
BC
FC
FC
F4
78
ENDCHAR
STARTCHAR 2682
ENCODING 9858
SWIDTH 540 0
DWIDTH 6 0
BBX 6 6 0 0
BITMAP
78
BC
FC
DC
F4
78
ENDCHAR
STARTCHAR 2683
ENCODING 9859
SWIDTH 540 0
DWIDTH 6 0
BBX 6 6 0 0
BITMAP
78
B4
FC
FC
B4
78
ENDCHAR
STARTCHAR 2684
ENCODING 9860
SWIDTH 540 0
DWIDTH 6 0
BBX 6 6 0 0
BITMAP
78
B4
FC
DC
B4
78
ENDCHAR
STARTCHAR 2685
ENCODING 9861
SWIDTH 540 0
DWIDTH 6 0
BBX 6 6 0 0
BITMAP
78
B4
FC
B4
FC
78
ENDCHAR
STARTCHAR 2B60
ENCODING 11104
SWIDTH 540 0
DWIDTH 6 0
BBX 5 14 0 -3
BITMAP
C0
C0
C8
D8
D8
C8
C8
D8
30
E0
C0
C0
C0
C0
ENDCHAR
STARTCHAR 2B61
ENCODING 11105
SWIDTH 540 0
DWIDTH 6 0
BBX 6 9 0 -1
BITMAP
80
80
80
40
00
14
34
2C
04
ENDCHAR
STARTCHAR 2B62
ENCODING 11106
SWIDTH 540 0
DWIDTH 6 0
BBX 5 7 1 0
BITMAP
F8
80
B8
88
B0
A0
40
ENDCHAR
STARTCHAR 2B63
ENCODING 11107
SWIDTH 540 0
DWIDTH 6 0
BBX 5 7 0 0
BITMAP
F8
08
B0
A0
A0
A0
40
ENDCHAR
STARTCHAR 2B64
ENCODING 11108
SWIDTH 540 0
DWIDTH 6 0
BBX 6 8 0 0
BITMAP
30
48
48
48
FC
CC
FC
78
ENDCHAR
STARTCHAR 2B80
ENCODING 11136
SWIDTH 540 0
DWIDTH 6 0
BBX 6 13 0 -3
BITMAP
80
C0
E0
F0
F0
F8
FC
F8
F0
E0
C0
80
80
ENDCHAR
STARTCHAR 2B81
ENCODING 11137
SWIDTH 540 0
DWIDTH 6 0
BBX 6 14 0 -3
BITMAP
80
80
40
20
10
08
08
04
08
10
20
20
40
80
ENDCHAR
STARTCHAR 2B82
ENCODING 11138
SWIDTH 540 0
DWIDTH 6 0
BBX 6 13 0 -3
BITMAP
04
0C
1C
3C
7C
7C
FC
7C
3C
1C
0C
04
04
ENDCHAR
STARTCHAR 2B83
ENCODING 11139
SWIDTH 540 0
DWIDTH 6 0
BBX 6 14 0 -3
BITMAP
04
08
10
10
20
40
80
80
40
20
20
10
08
04
ENDCHAR
STARTCHAR FB00
ENCODING 64256
SWIDTH 540 0
DWIDTH 6 0
BBX 5 8 0 0
BITMAP
28
50
50
F8
50
50
50
50
ENDCHAR
STARTCHAR FB01
ENCODING 64257
SWIDTH 540 0
DWIDTH 6 0
BBX 4 8 1 0
BITMAP
30
40
40
F0
50
50
50
50
ENDCHAR
STARTCHAR FB02
ENCODING 64258
SWIDTH 540 0
DWIDTH 6 0
BBX 4 8 1 0
BITMAP
30
50
50
F0
50
50
50
50
ENDCHAR
STARTCHAR FB03
ENCODING 64259
SWIDTH 540 0
DWIDTH 6 0
BBX 6 8 0 0
BITMAP
2C
50
50
FC
54
54
54
54
ENDCHAR
STARTCHAR FB04
ENCODING 64260
SWIDTH 540 0
DWIDTH 6 0
BBX 6 8 0 0
BITMAP
2C
54
54
FC
54
54
54
54
ENDCHAR
STARTCHAR FB06
ENCODING 64262
SWIDTH 540 0
DWIDTH 6 0
BBX 5 8 0 0
BITMAP
10
10
F8
90
F0
30
30
D8
ENDCHAR
ENDFONT
